<svg xmlns="http://www.w3.org/2000/svg" xmlns:xlink="http://www.w3.org/1999/xlink" viewBox="0,0,256,256" width="240px" height="240px" fill-rule="nonzero"><defs><linearGradient x1="15.002" y1="6.494" x2="33.584" y2="42.647" gradientUnits="userSpaceOnUse" id="color-1"><stop offset="0" stop-color="#01019b"></stop><stop offset="1" stop-color="#ff0000"></stop></linearGradient></defs><g fill="url(#color-1)" fill-rule="nonzero" stroke="none" stroke-width="1" stroke-linecap="butt" stroke-linejoin="miter" stroke-miterlimit="10" stroke-dasharray="" stroke-dashoffset="0" font-family="none" font-weight="none" font-size="none" text-anchor="none" style="mix-blend-mode: normal"><g transform="scale(5.33333,5.33333)"><path d="M44,24c0,11.045 -8.955,20 -20,20c-11.045,0 -20,-8.955 -20,-20c0,-11.045 8.955,-20 20,-20c11.045,0 20,8.955 20,20z"></path></g></g><g fill="#fffff0" fill-rule="nonzero" stroke="none" stroke-width="1" stroke-linecap="butt" stroke-linejoin="miter" stroke-miterlimit="10" stroke-dasharray="" stroke-dashoffset="0" font-family="none" font-weight="none" font-size="none" text-anchor="none" style="mix-blend-mode: normal"><g><path d="M95.08833,138.74167h-15.75v30.73h-17.97v-87.21h34.02c6.54667,0 12.30667,1.19667 17.28,3.59c4.96667,2.4 8.79,5.80333 11.47,10.21c2.67333,4.41333 4.01,9.43667 4.01,15.07v0c0,8.54667 -2.92333,15.28333 -8.77,20.21c-5.85333,4.93333 -13.95,7.4 -24.29,7.4zM79.33833,96.81167v27.38h16.05c4.74667,0 8.37,-1.12 10.87,-3.36c2.49333,-2.23333 3.74,-5.42667 3.74,-9.58v0c0,-4.27333 -1.25667,-7.72667 -3.77,-10.36c-2.52,-2.64 -5.99333,-4 -10.42,-4.08v0zM174.38833,169.47167h-33.9v-87.21h30.55c10.58,0 18.60333,2.02667 24.07,6.08c5.47333,4.05333 8.21,9.99333 8.21,17.82v0c0,4.27333 -1.09667,8.03667 -3.29,11.29c-2.2,3.25333 -5.25667,5.63667 -9.17,7.15v0c4.47333,1.12 7.99667,3.37667 10.57,6.77c2.58,3.39333 3.87,7.54667 3.87,12.46v0c0,8.38667 -2.67667,14.73667 -8.03,19.05c-5.35333,4.31333 -12.98,6.51 -22.88,6.59zM174.92833,131.49167h-16.47v23.54h15.39c4.23333,0 7.53667,-1.00667 9.91,-3.02c2.38,-2.02 3.57,-4.80667 3.57,-8.36v0c0,-7.98667 -4.13333,-12.04 -12.4,-12.16zM158.45833,96.81167v21.98h13.29c9.06667,-0.15333 13.6,-3.76667 13.6,-10.84v0c0,-3.95333 -1.14667,-6.79667 -3.44,-8.53c-2.3,-1.74 -5.92333,-2.61 -10.87,-2.61v0z"></path></g></g></svg>