<?xml version="1.0" encoding="iso-8859-1"?>
<!-- Uploaded to: SVG Repo, www.svgrepo.com, Generator: SVG Repo Mixer Tools -->
<svg fill="#ffffff" height="800px" width="800px" version="1.1" id="Layer_1" xmlns="http://www.w3.org/2000/svg" xmlns:xlink="http://www.w3.org/1999/xlink" 
	 viewBox="0 0 512 512" xml:space="preserve">
<g>
	<g>
		<path d="M467.264,417.536l-192-405.333C271.744,4.757,264.256,0,256,0c-8.256,0-15.744,4.757-19.264,12.203l-192,405.333
			c-1.365,2.837-2.069,5.973-2.069,9.131C42.667,485.291,153.237,512,256,512c102.741,0,213.333-26.709,213.333-85.333
			C469.333,423.509,468.629,420.373,467.264,417.536z M173.931,390.4c-6.869,1.152-13.504,2.432-19.819,3.84
			c-1.579,0.341-3.136,0.512-4.672,0.512c-9.771,0-18.581-6.763-20.821-16.704c-2.539-11.499,4.693-22.891,16.192-25.451
			c7.04-1.579,14.421-3.008,22.037-4.288c11.819-1.963,22.635,5.888,24.597,17.493C193.387,377.429,185.536,388.437,173.931,390.4z
			 M276.757,384.363h-0.789C269.419,384.128,262.741,384,256,384c-11.797,0-21.632-9.557-21.632-21.333s9.259-21.333,21.056-21.333
			H256c7.253,0,14.421,0.128,21.483,0.363c11.755,0.427,20.971,10.304,20.565,22.08
			C297.643,375.296,288.192,384.363,276.757,384.363z M402.56,384.363c-2.709,9.323-11.221,15.381-20.48,15.381
			c-1.963,0-3.968-0.277-5.952-0.853c-6.08-1.771-12.544-3.413-19.328-4.885c-11.499-2.539-18.773-13.909-16.235-25.429
			c2.517-11.499,13.952-18.816,25.408-16.235c7.723,1.685,15.104,3.563,22.059,5.568C399.36,361.216,405.845,373.056,402.56,384.363
			z"/>
	</g>
</g>
</svg>