<svg xmlns="http://www.w3.org/2000/svg"  viewBox="0 0 24 24" width="144px" height="144px"><path d="M 12 0 C 10.34375 0 9 1.34375 9 3 C 9 4.65625 10.34375 6 12 6 C 13.65625 6 15 4.65625 15 3 C 15 1.34375 13.65625 0 12 0 Z M 12 6 C 10 6 7.6875 7 7.6875 7 L 7.6875 7.0625 C 7.367188 7.167969 7.121094 7.425781 7.03125 7.75 L 5.65625 12.78125 L 2.59375 14.09375 C 2.226563 14.207031 1.957031 14.527344 1.902344 14.90625 C 1.847656 15.289063 2.019531 15.667969 2.339844 15.882813 C 2.660156 16.09375 3.074219 16.105469 3.40625 15.90625 L 6.90625 14.40625 C 7.128906 14.304688 7.304688 14.128906 7.40625 13.90625 L 7.4375 13.84375 C 7.449219 13.8125 7.460938 13.78125 7.46875 13.75 L 8.5 11.3125 L 8.96875 15 L 7 15.5 L 10.3125 17.84375 L 5.5 15.6875 C 4.398438 15.1875 3.511719 15.90625 3.3125 16.40625 C 3.113281 16.90625 3.085938 18.007813 4.1875 18.40625 L 8.84375 19.96875 L 8.59375 20.09375 C 8.09375 20.292969 7.894531 20.90625 8.09375 21.40625 C 8.195313 21.804688 8.601563 22 9 22 C 9.101563 22 9.210938 22.007813 9.3125 21.90625 L 11.90625 21 L 14.59375 21.90625 C 14.695313 22.007813 14.804688 22 14.90625 22 C 15.304688 22 15.707031 21.804688 15.90625 21.40625 C 16.105469 20.90625 15.90625 20.292969 15.40625 20.09375 L 15.03125 19.9375 L 19.6875 18.3125 C 20.886719 18.011719 20.886719 16.90625 20.6875 16.40625 C 20.488281 15.90625 19.601563 15.1875 18.5 15.6875 L 13.65625 17.84375 L 17 15.5 L 15.03125 15 L 15.5 11.3125 L 16.53125 13.78125 C 16.539063 13.800781 16.550781 13.824219 16.5625 13.84375 L 16.59375 13.90625 C 16.695313 14.128906 16.871094 14.304688 17.09375 14.40625 L 20.59375 15.90625 C 20.925781 16.105469 21.339844 16.09375 21.660156 15.882813 C 21.980469 15.667969 22.152344 15.289063 22.097656 14.90625 C 22.042969 14.527344 21.773438 14.207031 21.40625 14.09375 L 18.34375 12.78125 L 16.96875 7.75 C 16.890625 7.414063 16.640625 7.140625 16.3125 7.03125 L 16.3125 7 C 16.3125 7 14 6 12 6 Z M 12 23 C 4.5 23 3 24 3 24 L 21 24 C 21 24 19.5 23 12 23 Z"/></svg>