<svg xmlns="http://www.w3.org/2000/svg" xmlns:xlink="http://www.w3.org/1999/xlink" viewBox="0,0,256,256" width="240px" height="240px" fill-rule="nonzero"><defs><linearGradient x1="15.002" y1="6.494" x2="33.584" y2="42.647" gradientUnits="userSpaceOnUse" id="color-1"><stop offset="0" stop-color="#000000"></stop><stop offset="1" stop-color="#ff0000"></stop></linearGradient></defs><g fill="url(#color-1)" fill-rule="nonzero" stroke="none" stroke-width="1" stroke-linecap="butt" stroke-linejoin="miter" stroke-miterlimit="10" stroke-dasharray="" stroke-dashoffset="0" font-family="none" font-weight="none" font-size="none" text-anchor="none" style="mix-blend-mode: normal"><g transform="scale(5.33333,5.33333)"><path d="M44,24c0,11.045 -8.955,20 -20,20c-11.045,0 -20,-8.955 -20,-20c0,-11.045 8.955,-20 20,-20c11.045,0 20,8.955 20,20z"></path></g></g><g fill="#fffff0" fill-rule="nonzero" stroke="none" stroke-width="1" stroke-linecap="butt" stroke-linejoin="miter" stroke-miterlimit="10" stroke-dasharray="" stroke-dashoffset="0" font-family="none" font-weight="none" font-size="none" text-anchor="none" style="mix-blend-mode: normal"><g><path d="M118.55148,178.41333h-32.81l18.45,-106.16l30.48,0.07c7.14667,0.14667 13.57333,1.76333 19.28,4.85c5.71333,3.08667 10.34667,7.52333 13.9,13.31c3.54667,5.78 5.68333,12.29333 6.41,19.54v0c0.39333,4.22667 0.34667,8.55333 -0.14,12.98v0l-0.51,3.86c-2.14,15.55333 -8.25333,28.03333 -18.34,37.44c-10.08667,9.40667 -22.32667,14.11 -36.72,14.11zM134.16148,90.04333l-11.67,-0.07l-12.32,70.87l8.89,0.07c9.82,0 17.71,-3.59667 23.67,-10.79c5.95333,-7.19333 9.36667,-18.05667 10.24,-32.59v0l0.15,-2.34c0.14,-8.02 -1.39333,-14.16667 -4.6,-18.44c-3.20667,-4.28 -7.99333,-6.51667 -14.36,-6.71z"></path></g></g></svg>