<svg xmlns="http://www.w3.org/2000/svg" xmlns:xlink="http://www.w3.org/1999/xlink" viewBox="0,0,256,256" width="240px" height="240px" fill-rule="nonzero"><defs><linearGradient x1="15.002" y1="6.494" x2="33.584" y2="42.647" gradientUnits="userSpaceOnUse" id="color-1"><stop offset="0" stop-color="#292fc2"></stop><stop offset="1" stop-color="#9bffff"></stop></linearGradient></defs><g fill="none" fill-rule="nonzero" stroke="none" stroke-width="none" stroke-linecap="butt" stroke-linejoin="none" stroke-miterlimit="10" stroke-dasharray="" stroke-dashoffset="0" font-family="none" font-weight="none" font-size="none" text-anchor="none" style="mix-blend-mode: normal"><path transform="scale(5.33333,5.33333)" d="M44,24c0,11.045 -8.955,20 -20,20c-11.045,0 -20,-8.955 -20,-20c0,-11.045 8.955,-20 20,-20c11.045,0 20,8.955 20,20z" id="strokeMainSVG" fill="#fffff0" stroke="#fffff0" stroke-width="2" stroke-linejoin="round"></path><g transform="scale(5.33333,5.33333)" fill="url(#color-1)" stroke="none" stroke-width="1" stroke-linejoin="miter"><path d="M44,24c0,11.045 -8.955,20 -20,20c-11.045,0 -20,-8.955 -20,-20c0,-11.045 8.955,-20 20,-20c11.045,0 20,8.955 20,20z"></path></g></g><g fill="#fffff0" fill-rule="nonzero" stroke="none" stroke-width="none" stroke-linecap="butt" stroke-linejoin="none" stroke-miterlimit="10" stroke-dasharray="" stroke-dashoffset="0" font-family="none" font-weight="none" font-size="none" text-anchor="none" style="mix-blend-mode: normal"><path d="M143.78133,150.01484c1.02,-5.78667 -1.82333,-10.21 -8.53,-13.27l-14.08,-5.62c-16.33333,-7.28667 -24.08667,-17.32333 -23.26,-30.11c0.34,-5.93333 2.28667,-11.18333 5.84,-15.75c3.54667,-4.57333 8.52667,-8.16 14.94,-10.76c6.42,-2.6 13.35,-3.85 20.79,-3.75c10.25333,0.19333 18.54,3.24333 24.86,9.15c6.32,5.90667 9.43,13.81667 9.33,23.73h-21.29c0.24667,-4.81333 -0.81,-8.55667 -3.17,-11.23c-2.36,-2.67333 -6.01667,-4.05667 -10.97,-4.15c-4.86667,-0.1 -9.09667,1.00667 -12.69,3.32c-3.6,2.30667 -5.74,5.47667 -6.42,9.51c-0.92,5.3 2.63,9.50667 10.65,12.62l9.62,3.64l5.54,2.55c14.34,7.1 21.05,17.06667 20.13,29.9c-0.44,6.27333 -2.44667,11.68 -6.02,16.22c-3.57333,4.54667 -8.43333,8.03667 -14.58,10.47c-6.14667,2.42667 -12.91667,3.56667 -20.31,3.42c-7.53333,-0.14 -14.24,-1.72 -20.12,-4.74c-5.88667,-3.01333 -10.36,-7.26667 -13.42,-12.76c-2.86667,-5.1 -4.20333,-10.93333 -4.01,-17.5l21.37,0.08c-0.68667,11.52 4.97333,17.37667 16.98,17.57c5.20667,0 9.48667,-1.14333 12.84,-3.43c3.35333,-2.28 5.34667,-5.31667 5.98,-9.11z" id="strokeMainSVG" stroke="#fffff0" stroke-width="10.66667" stroke-linejoin="round"></path><g stroke="none" stroke-width="1" stroke-linejoin="miter"><path d="M143.78133,150.01484v0c1.02,-5.78667 -1.82333,-10.21 -8.53,-13.27v0l-14.08,-5.62c-16.33333,-7.28667 -24.08667,-17.32333 -23.26,-30.11v0c0.34,-5.93333 2.28667,-11.18333 5.84,-15.75c3.54667,-4.57333 8.52667,-8.16 14.94,-10.76c6.42,-2.6 13.35,-3.85 20.79,-3.75v0c10.25333,0.19333 18.54,3.24333 24.86,9.15c6.32,5.90667 9.43,13.81667 9.33,23.73v0h-21.29c0.24667,-4.81333 -0.81,-8.55667 -3.17,-11.23c-2.36,-2.67333 -6.01667,-4.05667 -10.97,-4.15v0c-4.86667,-0.1 -9.09667,1.00667 -12.69,3.32c-3.6,2.30667 -5.74,5.47667 -6.42,9.51v0c-0.92,5.3 2.63,9.50667 10.65,12.62v0l9.62,3.64l5.54,2.55c14.34,7.1 21.05,17.06667 20.13,29.9v0c-0.44,6.27333 -2.44667,11.68 -6.02,16.22c-3.57333,4.54667 -8.43333,8.03667 -14.58,10.47c-6.14667,2.42667 -12.91667,3.56667 -20.31,3.42v0c-7.53333,-0.14 -14.24,-1.72 -20.12,-4.74c-5.88667,-3.01333 -10.36,-7.26667 -13.42,-12.76v0c-2.86667,-5.1 -4.20333,-10.93333 -4.01,-17.5v0l21.37,0.08c-0.68667,11.52 4.97333,17.37667 16.98,17.57v0c5.20667,0 9.48667,-1.14333 12.84,-3.43c3.35333,-2.28 5.34667,-5.31667 5.98,-9.11z"></path></g></g></svg>