<svg xmlns="http://www.w3.org/2000/svg" xmlns:xlink="http://www.w3.org/1999/xlink" viewBox="0,0,256,256" width="240px" height="240px" fill-rule="nonzero"><defs><linearGradient x1="15.002" y1="6.494" x2="33.584" y2="42.647" gradientUnits="userSpaceOnUse" id="color-1"><stop offset="0" stop-color="#8000ff"></stop><stop offset="1" stop-color="#ff0000"></stop></linearGradient></defs><g fill="url(#color-1)" fill-rule="nonzero" stroke="none" stroke-width="1" stroke-linecap="butt" stroke-linejoin="miter" stroke-miterlimit="10" stroke-dasharray="" stroke-dashoffset="0" font-family="none" font-weight="none" font-size="none" text-anchor="none" style="mix-blend-mode: normal"><g transform="scale(5.33333,5.33333)"><path d="M44,24c0,11.045 -8.955,20 -20,20c-11.045,0 -20,-8.955 -20,-20c0,-11.045 8.955,-20 20,-20c11.045,0 20,8.955 20,20z"></path></g></g><g fill="#fffff0" fill-rule="nonzero" stroke="none" stroke-width="1" stroke-linecap="butt" stroke-linejoin="miter" stroke-miterlimit="10" stroke-dasharray="" stroke-dashoffset="0" font-family="none" font-weight="none" font-size="none" text-anchor="none" style="mix-blend-mode: normal"><g><path d="M94.10333,138.74167h-15.75v30.73h-17.97v-87.21h34.02c6.54667,0 12.30667,1.19667 17.28,3.59c4.96667,2.4 8.79,5.80333 11.47,10.21c2.67333,4.41333 4.01,9.43667 4.01,15.07v0c0,8.54667 -2.92333,15.28333 -8.77,20.21c-5.85333,4.93333 -13.95,7.4 -24.29,7.4zM78.35333,96.81167v27.38h16.05c4.74667,0 8.37,-1.12 10.87,-3.36c2.49333,-2.23333 3.74,-5.42667 3.74,-9.58v0c0,-4.27333 -1.25667,-7.72667 -3.77,-10.36c-2.52,-2.64 -5.99333,-4 -10.42,-4.08v0zM173.22333,138.74167h-15.75v30.73h-17.97v-87.21h34.02c6.54667,0 12.30667,1.19667 17.28,3.59c4.97333,2.4 8.79667,5.80333 11.47,10.21c2.67333,4.41333 4.01,9.43667 4.01,15.07v0c0,8.54667 -2.92333,15.28333 -8.77,20.21c-5.85333,4.93333 -13.95,7.4 -24.29,7.4zM157.47333,96.81167v27.38h16.05c4.75333,0 8.37667,-1.12 10.87,-3.36c2.49333,-2.23333 3.74,-5.42667 3.74,-9.58v0c0,-4.27333 -1.25667,-7.72667 -3.77,-10.36c-2.51333,-2.64 -5.98667,-4 -10.42,-4.08v0z"></path></g></g></svg>