<svg xmlns="http://www.w3.org/2000/svg" xmlns:xlink="http://www.w3.org/1999/xlink" viewBox="0,0,256,256" width="240px" height="240px" fill-rule="nonzero"><defs><linearGradient x1="15.002" y1="6.494" x2="33.584" y2="42.647" gradientUnits="userSpaceOnUse" id="color-1"><stop offset="0" stop-color="#ff7e40"></stop><stop offset="1" stop-color="#ffffff"></stop></linearGradient></defs><g transform=""><g fill="none" fill-rule="nonzero" stroke="none" stroke-width="none" stroke-linecap="butt" stroke-linejoin="none" stroke-miterlimit="10" stroke-dasharray="" stroke-dashoffset="0" font-family="none" font-weight="none" font-size="none" text-anchor="none" style="mix-blend-mode: normal"><path transform="scale(5.33333,5.33333)" d="M44,24c0,11.045 -8.955,20 -20,20c-11.045,0 -20,-8.955 -20,-20c0,-11.045 8.955,-20 20,-20c11.045,0 20,8.955 20,20z" id="strokeMainSVG" fill="#fffff0" stroke="#fffff0" stroke-width="2" stroke-linejoin="round"></path><g transform="scale(5.33333,5.33333)" fill="url(#color-1)" stroke="none" stroke-width="1" stroke-linejoin="miter"><path d="M44,24c0,11.045 -8.955,20 -20,20c-11.045,0 -20,-8.955 -20,-20c0,-11.045 8.955,-20 20,-20c11.045,0 20,8.955 20,20z"></path></g></g><g fill="#fffff0" fill-rule="nonzero" stroke="none" stroke-width="none" stroke-linecap="butt" stroke-linejoin="none" stroke-miterlimit="10" stroke-dasharray="" stroke-dashoffset="0" font-family="none" font-weight="none" font-size="none" text-anchor="none" style="mix-blend-mode: normal"><path d="M138.41333,178.41333l-18.96,-42.36l-14,12.98l-5.1,29.38h-21.37l18.45,-106.16h21.36l-8.16,46.81l10.86,-12.25l31.94,-34.56h27.85l-45.86,48.27l27.34,57.89z" id="strokeMainSVG" stroke="#fffff0" stroke-width="10.66667" stroke-linejoin="round"></path><g stroke="none" stroke-width="1" stroke-linejoin="miter"><path d="M138.41333,178.41333l-18.96,-42.36l-14,12.98l-5.1,29.38h-21.37l18.45,-106.16h21.36l-8.16,46.81l10.86,-12.25l31.94,-34.56h27.85l-45.86,48.27l27.34,57.89z"></path></g></g></g></svg>