<svg xmlns="http://www.w3.org/2000/svg"  viewBox="0 0 24 24" width="240px" height="240px"><path d="M 6 2 L 6 13.78125 L 10.5625 11.9375 C 9.664063 11.742188 9 10.957031 9 10 L 9 2 Z M 10 7 L 10 10 C 10 10.550781 10.449219 11 11 11 L 12 11 L 12 8 C 12 7.449219 11.550781 7 11 7 Z M 13 8 L 13 11 C 13 11.550781 13.449219 12 14 12 L 15 12 L 15 9 C 15 8.449219 14.550781 8 14 8 Z M 16 9 L 16 12 C 16 12.550781 16.449219 13 17 13 L 18 13 L 18 10 C 18 9.449219 17.550781 9 17 9 Z M 12.5625 12.375 L 12.71875 12.8125 C 13.25 14.132813 12.617188 15.65625 11.3125 16.21875 L 10.5 16.5625 C 11.277344 16.753906 12.417969 17.246094 13.03125 18.46875 L 12.125 18.90625 C 11.417969 17.488281 9.675781 17.4375 9.65625 17.4375 L 9.34375 17.4375 L 8.78125 16.21875 L 10.9375 15.3125 C 11.75 14.964844 12.144531 14.003906 11.8125 13.1875 L 11.59375 12.625 L 6.03125 14.84375 C 4.96875 15.515625 4.652344 16.917969 5.34375 17.96875 L 7.28125 20.90625 C 7.730469 21.589844 8.5 22 9.3125 22 L 14 22 C 16.210938 22 18 20.210938 18 18 L 18 14 L 17 14 C 16.261719 14 15.628906 13.59375 15.28125 13 L 14 13 C 13.429688 13 12.925781 12.757813 12.5625 12.375 Z"/></svg>