<svg xmlns="http://www.w3.org/2000/svg" xmlns:xlink="http://www.w3.org/1999/xlink" viewBox="0,0,256,256" width="192px" height="192px" fill-rule="nonzero"><g fill="#fffff0" fill-rule="nonzero" stroke="none" stroke-width="1" stroke-linecap="butt" stroke-linejoin="miter" stroke-miterlimit="10" stroke-dasharray="" stroke-dashoffset="0" font-family="none" font-weight="none" font-size="none" text-anchor="none" style="mix-blend-mode: normal"><g transform="scale(10.66667,10.66667)"><path d="M11,22v0c-0.8,0 -1.6,-0.3 -2.1,-0.9l-5.1,-5.1c-1.2,-1.2 -1.2,-3 0,-4.2l7.2,-7l7.1,7.1c0.6,0.6 0.9,1.3 0.9,2.1c0,0.8 -0.3,1.5 -0.9,2.1l-5.1,5.1c-0.5,0.5 -1.2,0.8 -2,0.8zM11,7.6l-5.8,5.6c-0.4,0.4 -0.4,1 0,1.4l5.1,5.1c0.2,0.2 0.5,0.3 0.7,0.3c0.2,0 0.4,-0.1 0.6,-0.2l5.1,-5.1c0.2,-0.2 0.3,-0.4 0.3,-0.7c0,-0.3 -0.1,-0.5 -0.3,-0.7zM22,20c0,1.1 -0.9,2 -2,2c-1.1,0 -2,-0.9 -2,-2c0,-1.1 2,-4 2,-4c0,0 2,2.9 2,4z"></path><path transform="translate(-1.34857,10.04434) rotate(-45.001)" d="M10.5,1.1h2v11.2h-2z"></path><path d="M4,14h14l-7,7z"></path></g></g></svg>