<svg xmlns="http://www.w3.org/2000/svg" xmlns:xlink="http://www.w3.org/1999/xlink" viewBox="0,0,256,256" width="192px" height="192px" fill-rule="nonzero"><g fill="#fffff0" fill-rule="nonzero" stroke="none" stroke-width="1" stroke-linecap="butt" stroke-linejoin="miter" stroke-miterlimit="10" stroke-dasharray="" stroke-dashoffset="0" font-family="none" font-weight="none" font-size="none" text-anchor="none" style="mix-blend-mode: normal"><g transform="translate(255.99811,302.90692) rotate(-180) scale(10.66667,10.66667)"><path d="M12,5c-3.588,0 -6.88189,1.26033 -9.46289,3.36133c-0.643,0.523 -0.67975,1.49603 -0.09375,2.08203c0.488,0.488 1.2605,0.55067 1.8125,0.13867c2.164,-1.618 4.84014,-2.58203 7.74414,-2.58203c2.904,0 5.58014,0.96503 7.74414,2.58203c0.553,0.413 1.3245,0.34737 1.8125,-0.14062c0.586,-0.586 0.54825,-1.55903 -0.09375,-2.08203c-2.581,-2.1 -5.87489,-3.35937 -9.46289,-3.35937zM12,10c-2.108,0 -4.07505,0.60172 -5.74805,1.63672c-0.824,0.509 -0.96039,1.65484 -0.27539,2.33984c0.497,0.497 1.26328,0.56331 1.86328,0.19531c1.213,-0.743 2.63616,-1.17187 4.16016,-1.17187c1.53,0 2.95978,0.43364 4.17578,1.18164c0.59,0.363 1.34594,0.29664 1.83594,-0.19336l0.02734,-0.02734c0.68,-0.68 0.54437,-1.80655 -0.26562,-2.31055c-1.679,-1.043 -3.65544,-1.65039 -5.77344,-1.65039zM12,15c-0.906,0 -1.7632,0.20341 -2.5332,0.56641c-0.628,0.295 -0.77225,1.12814 -0.28125,1.61914l1.78125,1.78125c0.571,0.571 1.49541,0.571 2.06641,0l1.78125,-1.78125c0.491,-0.491 0.34675,-1.32414 -0.28125,-1.61914c-0.77,-0.363 -1.6272,-0.56641 -2.5332,-0.56641z"></path></g></g><g fill="#fffff0" fill-rule="nonzero" stroke="none" stroke-width="1" stroke-linecap="butt" stroke-linejoin="miter" stroke-miterlimit="10" stroke-dasharray="" stroke-dashoffset="0" font-family="none" font-weight="none" font-size="none" text-anchor="none" style="mix-blend-mode: normal"><g><path d="M2.19333,58.88v0c0,-8.78 1.97,-15.77667 5.91,-20.99c3.94,-5.20667 9.33,-7.81 16.17,-7.81v0c5.48667,0 10.01667,2.05 13.59,6.15v0v-28.75h15.11v80h-13.6l-0.72,-5.99c-3.75333,4.68667 -8.58,7.03 -14.48,7.03v0c-6.63333,0 -11.95667,-2.61333 -15.97,-7.84c-4.00667,-5.22667 -6.01,-12.49333 -6.01,-21.8zM17.24333,59.98v0c0,5.27333 0.92,9.31667 2.76,12.13c1.84,2.81333 4.51333,4.22 8.02,4.22v0c4.65333,0 7.93333,-1.96 9.84,-5.88v0v-22.24c-1.87333,-3.92667 -5.12,-5.89 -9.74,-5.89v0c-7.25333,0 -10.88,5.88667 -10.88,17.66zM62.29333,59.46v-0.68c0,-5.59333 1.07667,-10.57667 3.23,-14.95c2.15333,-4.37333 5.25333,-7.76 9.3,-10.16c4.04667,-2.39333 8.74333,-3.59 14.09,-3.59v0c7.6,0 13.80667,2.32667 18.62,6.98c4.80667,4.65333 7.48667,10.97333 8.04,18.96v0l0.11,3.85c0,8.64667 -2.41333,15.58333 -7.24,20.81c-4.82667,5.22667 -11.30333,7.84 -19.43,7.84c-8.12667,0 -14.61,-2.60333 -19.45,-7.81c-4.84667,-5.21333 -7.27,-12.29667 -7.27,-21.25zM77.34333,59.87v0c0,5.34667 1.00667,9.43667 3.02,12.27c2.02,2.82667 4.90333,4.24 8.65,4.24v0c3.64667,0 6.49333,-1.39667 8.54,-4.19c2.05333,-2.79333 3.08,-7.26333 3.08,-13.41v0c0,-5.24667 -1.02667,-9.31 -3.08,-12.19c-2.04667,-2.88 -4.92667,-4.32 -8.64,-4.32v0c-3.68,0 -6.53,1.43333 -8.55,4.3c-2.01333,2.86 -3.02,7.29333 -3.02,13.3zM163.70333,31.12l10.26,35.89l7.39,-35.89h14.54l-14.38,56.36h-12.6l-10.68,-35.47l-10.68,35.47h-12.55l-14.38,-56.36h14.54l7.34,35.84l10.31,-35.84zM203.02333,31.12h14.17l0.47,6.51c4.02667,-5.03333 9.42333,-7.55 16.19,-7.55v0c5.97333,0 10.42,1.75333 13.34,5.26c2.91333,3.50667 4.40667,8.75 4.48,15.73v0v36.41h-15.06v-36.04c0,-3.2 -0.69333,-5.52 -2.08,-6.96c-1.38667,-1.44 -3.69667,-2.16 -6.93,-2.16v0c-4.23333,0 -7.41,1.80667 -9.53,5.42v0v39.74h-15.05z"></path></g></g></svg>