<svg xmlns="http://www.w3.org/2000/svg" xmlns:xlink="http://www.w3.org/1999/xlink" viewBox="0,0,256,256" width="192px" height="192px" fill-rule="nonzero"><g fill="#fffff0" fill-rule="nonzero" stroke="none" stroke-width="1" stroke-linecap="butt" stroke-linejoin="miter" stroke-miterlimit="10" stroke-dasharray="" stroke-dashoffset="0" font-family="none" font-weight="none" font-size="none" text-anchor="none" style="mix-blend-mode: normal"><g transform="translate(256,0) rotate(90) scale(10.66667,10.66667)"><path d="M22,6h-20c-1.103,0 -2,0.897 -2,2v8c0,1.103 0.897,2 2,2h20c1.103,0 2,-0.897 2,-2v-8c0,-1.103 -0.897,-2 -2,-2zM3,10.5v-2c0,-0.276 0.224,-0.5 0.5,-0.5h1c0.276,0 0.5,0.224 0.5,0.5v2c0,0.276 -0.224,0.5 -0.5,0.5h-1c-0.276,0 -0.5,-0.224 -0.5,-0.5zM7,12.5v-4c0,-0.276 0.224,-0.5 0.5,-0.5h1c0.276,0 0.5,0.224 0.5,0.5v4c0,0.276 -0.224,0.5 -0.5,0.5h-1c-0.276,0 -0.5,-0.224 -0.5,-0.5zM11,10.5v-2c0,-0.276 0.224,-0.5 0.5,-0.5h1c0.276,0 0.5,0.224 0.5,0.5v2c0,0.276 -0.224,0.5 -0.5,0.5h-1c-0.276,0 -0.5,-0.224 -0.5,-0.5zM15,12.5v-4c0,-0.276 0.224,-0.5 0.5,-0.5h1c0.276,0 0.5,0.224 0.5,0.5v4c0,0.276 -0.224,0.5 -0.5,0.5h-1c-0.276,0 -0.5,-0.224 -0.5,-0.5zM19,10.5v-2c0,-0.276 0.224,-0.5 0.5,-0.5h1c0.276,0 0.5,0.224 0.5,0.5v2c0,0.276 -0.224,0.5 -0.5,0.5h-1c-0.276,0 -0.5,-0.224 -0.5,-0.5z"></path></g></g></svg>