<svg xmlns="http://www.w3.org/2000/svg"  viewBox="0 0 24 24" width="240px" height="240px"><path d="M 9.875 1.96875 C 9.339844 1.953125 8.820313 2.238281 8.59375 2.6875 L 7.59375 4.8125 L 10.09375 5.90625 L 11 3.90625 C 11.300781 3.207031 11.007813 2.394531 10.40625 2.09375 C 10.230469 2.019531 10.054688 1.972656 9.875 1.96875 Z M 14.0625 2.28125 C 13.527344 2.242188 13.039063 2.476563 12.8125 3 L 11.09375 6.1875 C 11.09375 6.1875 12.511719 6.894531 12.8125 7.09375 C 13.210938 7.292969 13.1875 8 13.1875 8 L 15.1875 4.1875 C 15.488281 3.488281 15.292969 2.707031 14.59375 2.40625 C 14.417969 2.332031 14.242188 2.292969 14.0625 2.28125 Z M 17 4.4375 C 16.558594 4.480469 16.15625 4.71875 15.90625 5.09375 L 13.8125 9 C 13.414063 9.601563 13.710938 10.511719 14.3125 10.8125 C 15.011719 11.210938 15.886719 11.011719 16.1875 10.3125 L 18.3125 6.40625 C 18.710938 5.804688 18.414063 4.894531 17.8125 4.59375 C 17.550781 4.445313 17.265625 4.410156 17 4.4375 Z M 7 5.6875 C 5.898438 5.6875 4.894531 6.507813 4.59375 7.90625 C 4.292969 8.90625 3.488281 11.789063 3.1875 12.6875 C 2.789063 13.6875 3.101563 14.59375 3.5 15.09375 C 3.699219 15.394531 4.613281 16.207031 5.3125 16.90625 C 5.914063 17.507813 6.09375 18.1875 6.09375 19.1875 L 6.09375 22 L 16.1875 22 L 16.1875 20.40625 C 16.1875 19.105469 17.085938 19.289063 17.6875 17.6875 C 17.988281 16.988281 19 14.3125 19 14.3125 C 16.398438 15.113281 15.585938 13.386719 15.6875 12.1875 C 14.6875 12.386719 13.101563 12.113281 12.5 10.8125 C 12 11.3125 11.300781 11.90625 10 11.40625 L 7.6875 10.1875 C 7.246094 10.03125 7.089844 9.523438 7.03125 8.90625 L 10.3125 10.5 C 11.113281 10.898438 12.007813 10.613281 12.40625 9.8125 C 12.804688 9.113281 12.488281 8.085938 11.6875 7.6875 L 7.8125 5.90625 C 7.5625 5.78125 7.28125 5.714844 7.03125 5.71875 C 7.019531 5.710938 7.015625 5.6875 7 5.6875 Z M 19.65625 7.96875 C 19.121094 7.929688 18.632813 8.164063 18.40625 8.6875 L 16.90625 11.5 C 16.605469 12.199219 16.800781 13.011719 17.5 13.3125 C 18.199219 13.613281 19.011719 13.289063 19.3125 12.6875 L 20.8125 9.90625 C 21.113281 9.207031 20.886719 8.394531 20.1875 8.09375 C 20.011719 8.019531 19.835938 7.980469 19.65625 7.96875 Z"/></svg>