<svg xmlns="http://www.w3.org/2000/svg" xmlns:xlink="http://www.w3.org/1999/xlink" viewBox="0,0,256,256" width="240px" height="240px" fill-rule="nonzero"><g fill="#d31a1a" fill-rule="nonzero" stroke="none" stroke-width="1" stroke-linecap="butt" stroke-linejoin="miter" stroke-miterlimit="10" stroke-dasharray="" stroke-dashoffset="0" font-family="none" font-weight="none" font-size="none" text-anchor="none" style="mix-blend-mode: normal"><g transform="scale(10.66667,10.66667)"><path d="M3,5c-1.103,0 -2,0.897 -2,2v11c0,1.103 0.897,2 2,2h18c1.103,0 2,-0.897 2,-2v-11c0,-1.103 -0.897,-2 -2,-2zM8,10h1h0.5c0.828,0 1.5,0.672 1.5,1.5c0,0.648 -0.41228,1.1943 -0.98828,1.4043l1.04688,2.0957h-1.11719l-0.94141,-1.88281v1.88281h-1v-2zM12,10h3v1h-2v1h1.59961v1h-1.59961v1h2v1h-3zM18,10c1.105,0 2,0.895 2,2h-1c0,-0.551 -0.449,-1 -1,-1c-0.551,0 -1,0.449 -1,1v1c0,0.551 0.449,1 1,1c0.551,0 1,-0.449 1,-1h1c0,1.105 -0.895,2 -2,2c-1.105,0 -2,-0.895 -2,-2v-1c0,-1.105 0.895,-2 2,-2zM5.5,11c0.828,0 1.5,0.672 1.5,1.5c0,0.828 -0.672,1.5 -1.5,1.5c-0.828,0 -1.5,-0.672 -1.5,-1.5c0,-0.828 0.672,-1.5 1.5,-1.5zM9,11v1h0.5c0.276,0 0.5,-0.224 0.5,-0.5c0,-0.276 -0.224,-0.5 -0.5,-0.5z"></path></g></g></svg>