<?xml version="1.0" encoding="UTF-8" standalone="no" ?>
<!DOCTYPE svg PUBLIC "-//W3C//DTD SVG 1.1//EN" "http://www.w3.org/Graphics/SVG/1.1/DTD/svg11.dtd">
<svg xmlns="http://www.w3.org/2000/svg" xmlns:xlink="http://www.w3.org/1999/xlink" version="1.1" width="200" height="200" viewBox="0 0 200 200" xml:space="preserve">
<desc>Created with Fabric.js 5.2.4</desc>
<defs>
</defs>
<rect x="0" y="0" width="100%" height="100%" fill="transparent"></rect>
<g transform="matrix(1 0 0 1 100 100)" id="26b99c11-0a4b-4c21-b514-c9bee3db51ff"  >
<rect style="stroke: none; stroke-width: 1; stroke-dasharray: none; stroke-linecap: butt; stroke-dashoffset: 0; stroke-linejoin: miter; stroke-miterlimit: 4; fill: rgb(255,255,255); fill-rule: nonzero; opacity: 1; visibility: hidden;" vector-effect="non-scaling-stroke"  x="-100" y="-100" rx="0" ry="0" width="200" height="200" />
</g>
<g transform="matrix(Infinity NaN NaN Infinity 0 0)" id="12d2ec8f-40e7-47c4-942a-7b67e58e8510"  >
</g>
<g transform="matrix(0 2.07 -1.26 0 100.49 73.38)"  >
<path style="stroke: rgb(255,255,255); stroke-width: 1; stroke-dasharray: none; stroke-linecap: butt; stroke-dashoffset: 0; stroke-linejoin: miter; stroke-miterlimit: 4; fill: rgb(255,255,255); fill-rule: nonzero; opacity: 1;" vector-effect="non-scaling-stroke"  transform=" translate(-67.91, -50.37)" d="M 68.245 26.9 C 69.796 30.471999999999998 70.98700000000001 34.25 71.81400000000001 38.08 C 72.59100000000001 41.91 73.00500000000001 45.792 73.00500000000001 49.724999999999994 C 73.00500000000001 53.864999999999995 72.54100000000001 58.05799999999999 71.66000000000001 62.09499999999999 C 70.72900000000001 66.18499999999999 69.382 70.16999999999999 67.56900000000002 73.94899999999998 C 67.05200000000002 75.08699999999999 64.88100000000001 75.91599999999998 63.73900000000002 75.13799999999998 C 63.173000000000016 74.72399999999998 62.862000000000016 73.89499999999998 62.80800000000002 73.01599999999998 L 62.80800000000002 72.70599999999997 C 62.80800000000002 72.39499999999997 62.86200000000002 72.08499999999998 62.96500000000002 71.77299999999997 C 64.04900000000002 68.30599999999997 64.88000000000002 64.73499999999997 65.39700000000002 61.00799999999997 C 65.96400000000001 57.33299999999997 66.22500000000002 53.554999999999964 66.22500000000002 49.72399999999997 C 66.22500000000002 46.10099999999997 65.96400000000003 42.58099999999997 65.50000000000003 39.11499999999997 C 65.03300000000003 35.59499999999996 64.31000000000003 32.230999999999966 63.32500000000003 28.917999999999967 C 62.96500000000003 27.676999999999968 63.37900000000003 26.175999999999966 64.20600000000003 25.606999999999967 C 65.346 24.83 67.674 25.659 68.245 26.9 z" stroke-linecap="round" />
</g>
<g transform="matrix(0 1.98 -1.42 0 100 100.11)"  >
<path style="stroke: rgb(255,255,255); stroke-width: 1; stroke-dasharray: none; stroke-linecap: butt; stroke-dashoffset: 0; stroke-linejoin: miter; stroke-miterlimit: 4; fill: rgb(255,255,255); fill-rule: nonzero; opacity: 1;" vector-effect="non-scaling-stroke"  transform=" translate(-78.55, -49.72)" d="M 72.542 14.272 C 73.626 13.443 75.595 14.065 76.269 15.151 C 79.268 20.431 81.59700000000001 26.021 83.152 31.818 C 84.703 37.666000000000004 85.531 43.67 85.531 49.725 C 85.531 55.78 84.703 61.784 83.152 67.581 C 81.597 73.378 79.268 79.019 76.269 84.247 C 75.595 85.385 73.626 86.008 72.542 85.179 C 71.504 84.403 71.351 82.85000000000001 71.81400000000001 81.764 C 73.93900000000001 76.898 75.54100000000001 71.722 76.62800000000001 66.288 C 77.71600000000001 60.904999999999994 78.28600000000002 55.367 78.28600000000002 49.724999999999994 C 78.28600000000002 44.08299999999999 77.71600000000002 38.49399999999999 76.62800000000001 33.11 C 75.54000000000002 27.729 73.93900000000002 22.500999999999998 71.81400000000002 17.686999999999998 C 71.351 16.549 71.558 14.996 72.542 14.272 z" stroke-linecap="round" />
</g>
<g transform="matrix(0.32 0 0 0.41 100 44.25)" id="e236619c-89cd-4575-9c80-3d684400cd03"  >
<rect style="stroke: rgb(249,249,249); stroke-width: 0; stroke-dasharray: none; stroke-linecap: butt; stroke-dashoffset: 0; stroke-linejoin: miter; stroke-miterlimit: 4; fill: rgb(255,255,255); fill-rule: nonzero; opacity: 1;" vector-effect="non-scaling-stroke"  x="-37.167" y="-37.167" rx="0" ry="0" width="74.334" height="74.334" />
</g>
<g transform="matrix(0.53 0 0 0.53 100 147)"  >
<path style="stroke: rgb(255,255,255); stroke-width: 1; stroke-dasharray: none; stroke-linecap: butt; stroke-dashoffset: 0; stroke-linejoin: miter; stroke-miterlimit: 10; fill: rgb(252,252,252); fill-rule: nonzero; opacity: 1;" vector-effect="non-scaling-stroke"  transform=" translate(-129.07, -214.4)" d="M 91.48667 172.695 L 91.48667 181.975 L 59.236670000000004 256.105 L 41.75667 256.105 L 74.06667 186.09500000000003 L 32.586670000000005 186.09500000000003 L 32.586670000000005 172.69500000000002 z M 142.30667 172.575 L 142.30667 256.105 L 125.74667 256.105 L 125.74667 192.28500000000003 L 105.98666999999999 198.41500000000002 L 105.98666999999999 184.955 L 140.52667 172.57500000000002 z M 225.54667 206.265 L 225.54667 221.61499999999998 C 225.54667 233.15499999999997 223.16 241.97832999999997 218.38667 248.08499999999998 C 213.61334000000002 254.19832999999997 206.62334 257.255 197.41667 257.255 L 197.41667 257.255 C 188.33 257.255 181.38 254.255 176.56667000000002 248.255 C 171.75334 242.26166999999998 169.29000000000002 233.66833 169.17667000000003 222.475 L 169.17667000000003 222.475 L 169.17667000000003 207.125 C 169.17667000000003 195.47833 171.59334000000004 186.635 176.42667000000003 180.595 C 181.25334000000004 174.56167 188.21334000000002 171.545 197.30667000000003 171.545 C 206.39334000000002 171.545 213.34334 174.535 218.15667000000002 180.515 C 222.97000000000003 186.48833 225.43334000000002 195.07166999999998 225.54667 206.265 z M 208.99667 224.595 L 208.99667 204.775 C 208.99667 197.86167 208.04999999999998 192.82833 206.15667 189.675 C 204.26334 186.52833 201.31333999999998 184.955 197.30667 184.955 L 197.30667 184.955 C 193.40667 184.955 190.53334 186.45167 188.68667 189.44500000000002 C 186.83334 192.44500000000002 185.85 197.13500000000002 185.73667 203.51500000000001 L 185.73667 203.51500000000001 L 185.73667 223.79500000000002 C 185.73667 230.59500000000003 186.66 235.645 188.50667 238.94500000000002 C 190.36 242.25167000000002 193.33 243.90500000000003 197.41667 243.90500000000003 L 197.41667 243.90500000000003 C 201.47 243.90500000000003 204.39334000000002 242.32167000000004 206.18667000000002 239.15500000000003 C 207.98000000000002 235.98167000000004 208.91667 231.12833000000003 208.99667000000002 224.59500000000003 z" stroke-linecap="round" />
</g>
</svg>