<svg xmlns="http://www.w3.org/2000/svg" xmlns:xlink="http://www.w3.org/1999/xlink" viewBox="0,0,256,256" width="240px" height="240px" fill-rule="nonzero"><g fill="#ffffff" fill-rule="nonzero" stroke="none" stroke-width="1" stroke-linecap="butt" stroke-linejoin="miter" stroke-miterlimit="10" stroke-dasharray="" stroke-dashoffset="0" font-family="none" font-weight="none" font-size="none" text-anchor="none" style="mix-blend-mode: normal"><g transform="scale(10.66667,10.66667)"><path d="M4,2v2h-1c-0.552,0 -1,0.448 -1,1v1c0,0.552 0.448,1 1,1h4c0.552,0 1,-0.448 1,-1v-1c0,-0.552 -0.448,-1 -1,-1h-1v-2zM11,2v12h-1c-0.552,0 -1,0.448 -1,1v1c0,0.552 0.448,1 1,1h4c0.552,0 1,-0.448 1,-1v-1c0,-0.552 -0.448,-1 -1,-1h-1v-12zM18,2v7h-1c-0.552,0 -1,0.448 -1,1v1c0,0.552 0.448,1 1,1h4c0.552,0 1,-0.448 1,-1v-1c0,-0.552 -0.448,-1 -1,-1h-1v-7zM4,9v13h2v-13zM18,14v8h2v-8zM11,19v3h2v-3z"></path></g></g></svg>