<?xml version="1.0" encoding="UTF-8" standalone="no" ?>
<!DOCTYPE svg PUBLIC "-//W3C//DTD SVG 1.1//EN" "http://www.w3.org/Graphics/SVG/1.1/DTD/svg11.dtd">
<svg xmlns="http://www.w3.org/2000/svg" xmlns:xlink="http://www.w3.org/1999/xlink" version="1.1" width="200" height="200" viewBox="0 0 200 200" xml:space="preserve">
<desc>Created with Fabric.js 5.2.4</desc>
<defs>
</defs>
<rect x="0" y="0" width="100%" height="100%" fill="transparent"></rect>
<g transform="matrix(1 0 0 1 100 100)" id="26b99c11-0a4b-4c21-b514-c9bee3db51ff"  >
<rect style="stroke: none; stroke-width: 1; stroke-dasharray: none; stroke-linecap: butt; stroke-dashoffset: 0; stroke-linejoin: miter; stroke-miterlimit: 4; fill: rgb(255,255,255); fill-rule: nonzero; opacity: 1; visibility: hidden;" vector-effect="non-scaling-stroke"  x="-100" y="-100" rx="0" ry="0" width="200" height="200" />
</g>
<g transform="matrix(Infinity NaN NaN Infinity 0 0)" id="12d2ec8f-40e7-47c4-942a-7b67e58e8510"  >
</g>
<g transform="matrix(0 1.89 -0.76 0 99.98 76.43)"  >
<path style="stroke: rgb(255,255,255); stroke-width: 1; stroke-dasharray: none; stroke-linecap: butt; stroke-dashoffset: 0; stroke-linejoin: miter; stroke-miterlimit: 4; fill: rgb(255,255,255); fill-rule: nonzero; opacity: 1;" vector-effect="non-scaling-stroke"  transform=" translate(-67.91, -50.37)" d="M 68.245 26.9 C 69.796 30.471999999999998 70.98700000000001 34.25 71.81400000000001 38.08 C 72.59100000000001 41.91 73.00500000000001 45.792 73.00500000000001 49.724999999999994 C 73.00500000000001 53.864999999999995 72.54100000000001 58.05799999999999 71.66000000000001 62.09499999999999 C 70.72900000000001 66.18499999999999 69.382 70.16999999999999 67.56900000000002 73.94899999999998 C 67.05200000000002 75.08699999999999 64.88100000000001 75.91599999999998 63.73900000000002 75.13799999999998 C 63.173000000000016 74.72399999999998 62.862000000000016 73.89499999999998 62.80800000000002 73.01599999999998 L 62.80800000000002 72.70599999999997 C 62.80800000000002 72.39499999999997 62.86200000000002 72.08499999999998 62.96500000000002 71.77299999999997 C 64.04900000000002 68.30599999999997 64.88000000000002 64.73499999999997 65.39700000000002 61.00799999999997 C 65.96400000000001 57.33299999999997 66.22500000000002 53.554999999999964 66.22500000000002 49.72399999999997 C 66.22500000000002 46.10099999999997 65.96400000000003 42.58099999999997 65.50000000000003 39.11499999999997 C 65.03300000000003 35.59499999999996 64.31000000000003 32.230999999999966 63.32500000000003 28.917999999999967 C 62.96500000000003 27.676999999999968 63.37900000000003 26.175999999999966 64.20600000000003 25.606999999999967 C 65.346 24.83 67.674 25.659 68.245 26.9 z" stroke-linecap="round" />
</g>
<g transform="matrix(0 1.63 -0.71 0 99.51 99.6)"  >
<path style="stroke: rgb(255,255,255); stroke-width: 1; stroke-dasharray: none; stroke-linecap: butt; stroke-dashoffset: 0; stroke-linejoin: miter; stroke-miterlimit: 4; fill: rgb(255,255,255); fill-rule: nonzero; opacity: 1;" vector-effect="non-scaling-stroke"  transform=" translate(-78.55, -49.72)" d="M 72.542 14.272 C 73.626 13.443 75.595 14.065 76.269 15.151 C 79.268 20.431 81.59700000000001 26.021 83.152 31.818 C 84.703 37.666000000000004 85.531 43.67 85.531 49.725 C 85.531 55.78 84.703 61.784 83.152 67.581 C 81.597 73.378 79.268 79.019 76.269 84.247 C 75.595 85.385 73.626 86.008 72.542 85.179 C 71.504 84.403 71.351 82.85000000000001 71.81400000000001 81.764 C 73.93900000000001 76.898 75.54100000000001 71.722 76.62800000000001 66.288 C 77.71600000000001 60.904999999999994 78.28600000000002 55.367 78.28600000000002 49.724999999999994 C 78.28600000000002 44.08299999999999 77.71600000000002 38.49399999999999 76.62800000000001 33.11 C 75.54000000000002 27.729 73.93900000000002 22.500999999999998 71.81400000000002 17.686999999999998 C 71.351 16.549 71.558 14.996 72.542 14.272 z" stroke-linecap="round" />
</g>
<g transform="matrix(0.32 0 0 0.41 100 44.25)" id="e236619c-89cd-4575-9c80-3d684400cd03"  >
<rect style="stroke: rgb(249,249,249); stroke-width: 0; stroke-dasharray: none; stroke-linecap: butt; stroke-dashoffset: 0; stroke-linejoin: miter; stroke-miterlimit: 4; fill: rgb(255,255,255); fill-rule: nonzero; opacity: 1;" vector-effect="non-scaling-stroke"  x="-37.167" y="-37.167" rx="0" ry="0" width="74.334" height="74.334" />
</g>
<g transform="matrix(0.53 0 0 0.53 100.57 147.95)"  >
<path style="stroke: rgb(255,255,255); stroke-width: 1; stroke-dasharray: none; stroke-linecap: butt; stroke-dashoffset: 0; stroke-linejoin: miter; stroke-miterlimit: 10; fill: rgb(255,255,255); fill-rule: nonzero; opacity: 1;" vector-effect="non-scaling-stroke"  transform=" translate(-129.07, -214.4)" d="M 88.16167 194.865 L 88.16167 194.865 C 88.16167 198.91167000000002 87.15167 202.50167000000002 85.13167 205.63500000000002 C 83.105 208.76833000000002 80.315 211.26833000000002 76.76167 213.13500000000002 L 76.76167 213.13500000000002 C 80.80834 215.08833 84.01834 217.77167000000003 86.39166999999999 221.18500000000003 C 88.75833999999999 224.60500000000002 89.94166999999999 228.62500000000003 89.94166999999999 233.24500000000003 L 89.94166999999999 233.24500000000003 C 89.94166999999999 240.65833000000003 87.42166999999999 246.51167000000004 82.38166999999999 250.80500000000004 C 77.33499999999998 255.10500000000005 70.47833999999999 257.25500000000005 61.811669999999985 257.25500000000005 C 53.138339999999985 257.25500000000005 46.26166999999998 255.09833000000006 41.18166999999998 250.78500000000005 C 36.101669999999984 246.46500000000006 33.561669999999985 240.61833000000004 33.561669999999985 233.24500000000006 L 33.561669999999985 233.24500000000006 C 33.561669999999985 228.62500000000006 34.74499999999998 224.59833000000006 37.11166999999998 221.16500000000005 C 39.484999999999985 217.72500000000005 42.67499999999998 215.04833000000005 46.68166999999998 213.13500000000005 L 46.68166999999998 213.13500000000005 C 43.12833999999998 211.26833000000005 40.351669999999984 208.76833000000005 38.351669999999984 205.63500000000005 C 36.344999999999985 202.50167000000005 35.341669999999986 198.91167000000004 35.341669999999986 194.86500000000004 L 35.341669999999986 194.86500000000004 C 35.341669999999986 187.75833000000003 37.708339999999986 182.09500000000003 42.44166999999999 177.87500000000003 C 47.18166999999999 173.65500000000003 53.61833999999999 171.54500000000002 61.75166999999999 171.54500000000002 L 61.75166999999999 171.54500000000002 C 69.85166999999998 171.54500000000002 76.27833999999999 173.63500000000002 81.03166999999999 177.81500000000003 C 85.785 182.00167000000002 88.16166999999999 187.68500000000003 88.16166999999999 194.86500000000004 z M 73.32167 232.045 L 73.32167 232.045 C 73.32167 228.41833 72.27167 225.515 70.17166999999999 223.33499999999998 C 68.07167 221.16167 65.24499999999999 220.075 61.69166999999999 220.075 L 61.69166999999999 220.075 C 58.17833999999999 220.075 55.37166999999999 221.15167 53.271669999999986 223.30499999999998 C 51.171669999999985 225.46499999999997 50.12166999999999 228.37832999999998 50.12166999999999 232.045 L 50.12166999999999 232.045 C 50.12166999999999 235.59832999999998 51.15166999999999 238.46167 53.211669999999984 240.635 C 55.278339999999986 242.815 58.14499999999998 243.905 61.811669999999985 243.905 L 61.811669999999985 243.905 C 65.39833999999999 243.905 68.21499999999999 242.855 70.26166999999998 240.755 C 72.30166999999999 238.655 73.32166999999998 235.75167 73.32166999999998 232.045 z M 71.60167 195.665 L 71.60167 195.665 C 71.60167 192.41833 70.745 189.81167 69.03167 187.845 C 67.31167 185.87833 64.885 184.895 61.751670000000004 184.895 L 61.751670000000004 184.895 C 58.65834 184.895 56.251670000000004 185.84833 54.531670000000005 187.75500000000002 C 52.81167000000001 189.66833000000003 51.95167000000001 192.30500000000004 51.95167000000001 195.66500000000002 L 51.95167000000001 195.66500000000002 C 51.95167000000001 198.99167000000003 52.81167000000001 201.66500000000002 54.531670000000005 203.68500000000003 C 56.251670000000004 205.71167000000003 58.678340000000006 206.72500000000002 61.81167000000001 206.72500000000002 C 64.94500000000001 206.72500000000002 67.35834000000001 205.71167000000003 69.05167 203.68500000000003 C 70.75167 201.66500000000002 71.60167 198.99167000000003 71.60167 195.66500000000002 z M 141.33167 172.575 L 141.33167 256.105 L 124.77167 256.105 L 124.77167 192.28500000000003 L 105.01167 198.41500000000002 L 105.01167 184.955 L 139.55167 172.57500000000002 z M 224.57167 206.265 L 224.57167 221.61499999999998 C 224.57167 233.15499999999997 222.185 241.97832999999997 217.41167000000002 248.08499999999998 C 212.63834000000003 254.19832999999997 205.64834000000002 257.255 196.44167000000002 257.255 L 196.44167000000002 257.255 C 187.35500000000002 257.255 180.40500000000003 254.255 175.59167000000002 248.255 C 170.77834000000001 242.26166999999998 168.31500000000003 233.66833 168.20167000000004 222.475 L 168.20167000000004 222.475 L 168.20167000000004 207.125 C 168.20167000000004 195.47833 170.61834000000005 186.635 175.45167000000004 180.595 C 180.27834000000004 174.56167 187.23834000000005 171.545 196.33167000000003 171.545 C 205.41834000000003 171.545 212.36834000000005 174.535 217.18167000000003 180.515 C 221.99500000000003 186.48833 224.45834000000002 195.07166999999998 224.57167 206.265 z M 208.02167 224.595 L 208.02167 204.775 C 208.02167 197.86167 207.075 192.82833 205.18167 189.675 C 203.28834 186.52833 200.33834 184.955 196.33167 184.955 L 196.33167 184.955 C 192.43167 184.955 189.55834000000002 186.45167 187.71167 189.44500000000002 C 185.85834 192.44500000000002 184.875 197.13500000000002 184.76167 203.51500000000001 L 184.76167 203.51500000000001 L 184.76167 223.79500000000002 C 184.76167 230.59500000000003 185.685 235.645 187.53167000000002 238.94500000000002 C 189.38500000000002 242.25167000000002 192.35500000000002 243.90500000000003 196.44167000000002 243.90500000000003 L 196.44167000000002 243.90500000000003 C 200.495 243.90500000000003 203.41834000000003 242.32167000000004 205.21167000000003 239.15500000000003 C 207.00500000000002 235.98167000000004 207.94167000000002 231.12833000000003 208.02167000000003 224.59500000000003 z" stroke-linecap="round" />
</g>
</svg>