<svg xmlns="http://www.w3.org/2000/svg"  viewBox="0 0 24 24" width="240px" height="240px"><path d="M 7.9570312 1.1054688 L 7.9570312 4.8027344 C 7.6580312 4.9257344 7.336 5 7 5 C 5.801 5 4.738 4.129 4.5 3 C 4.238 4.109 3.191 5 2 5 C 1.204 5 0.474 4.6172969 0 4.0292969 L 0 6.484375 C 0.537 6.781375 1.21 7 2 7 C 3.059 7 3.898 6.6091563 4.5 6.1601562 C 5.09 6.6091562 5.941 7 7 7 C 7.346 7 7.6580312 6.9479531 7.9570312 6.8769531 L 7.9570312 8.4121094 C 7.9570312 10.907109 7.621125 12.036781 7.078125 13.050781 C 6.469125 14.188781 6.3935156 15.167844 6.8535156 15.964844 C 7.3435156 16.807844 8.2930312 17.105469 8.9570312 17.105469 C 9.4480312 17.105469 9.9160781 16.960031 10.330078 16.832031 C 10.704078 16.715031 11.092031 16.59375 11.457031 16.59375 C 11.882031 16.59375 12.517172 16.740141 13.076172 16.869141 C 13.593172 16.991141 14.082031 17.105469 14.457031 17.105469 C 14.635031 17.105469 14.911844 17.098844 15.214844 17.089844 C 15.682844 17.074844 16.467672 17.052078 16.638672 17.080078 C 17.196672 17.169078 17.7425 17.009859 18.1875 16.630859 C 18.6685 16.219859 18.957031 15.591172 18.957031 14.951172 L 18.957031 14.302734 L 18.613281 14.189453 C 18.576281 14.177453 14.851734 12.957031 13.802734 12.582031 C 13.767734 12.569031 12.957031 12.247375 12.957031 11.484375 C 12.957031 10.547375 13.504609 9.0068594 14.349609 6.6308594 C 14.389609 6.5198594 14.459969 6.3634531 14.542969 6.1894531 C 15.141969 6.6244531 15.964 7 17 7 C 18.059 7 18.91 6.6091563 19.5 6.1601562 C 20.09 6.6091562 20.941 7 22 7 C 22.792 7 23.461 6.7804219 24 6.4824219 L 24 4.0234375 C 23.526 4.6114375 22.796 5 22 5 C 20.82 5 19.762 4.102 19.5 3 C 19.219 4.07 18.16 5 17 5 C 16.432 5 15.894031 4.7882188 15.457031 4.4492188 C 15.645031 4.1082187 17.287109 1.1054688 17.287109 1.1054688 L 7.9570312 1.1054688 z M 0 18 L 0 23 L 24 23 L 24 18 L 0 18 z"/></svg>