<svg xmlns="http://www.w3.org/2000/svg"  viewBox="0 0 24 24" width="240px" height="240px"><path d="M 7 1 L 7 5 C 5.801 5 4.738 4.129 4.5 3 C 4.238 4.109 3.191 5 2 5 C 1.204 5 0.474 4.6172969 0 4.0292969 L 0 6.484375 C 0.537 6.781375 1.21 7 2 7 C 3.059 7 3.898 6.6091563 4.5 6.1601562 C 5.09 6.6091562 5.941 7 7 7 L 7 9.3066406 C 7 11.802641 6.6621406 12.931312 6.1191406 13.945312 C 5.5101406 15.082313 5.4345312 16.062375 5.8945312 16.859375 C 6.3855312 17.701375 7.336 18 8 18 C 8.491 18 8.9600469 17.854563 9.3730469 17.726562 C 9.7490469 17.610563 10.138 17.488281 10.5 17.488281 C 10.934 17.488281 11.591141 17.642625 12.119141 17.765625 C 12.724141 17.907625 13.147 18 13.5 18 C 13.678 18 13.956766 17.991422 14.259766 17.982422 C 14.728766 17.968422 15.507687 17.944609 15.679688 17.974609 C 16.237687 18.062609 16.785469 17.903391 17.230469 17.525391 C 17.712469 17.114391 18 16.487656 18 15.847656 L 18 15.197266 L 17.654297 15.085938 C 17.617297 15.073937 13.892891 13.853563 12.837891 13.476562 C 12.803891 13.462562 12 13.144906 12 12.378906 C 12 11.441906 12.548578 9.8993906 13.392578 7.5253906 C 13.460578 7.3343906 13.592766 7.0027031 13.759766 6.5957031 C 14.034766 6.4657031 14.289 6.3211562 14.5 6.1601562 C 15.102 6.6091563 15.941 7 17 7 C 18.059 7 18.91 6.6091563 19.5 6.1601562 C 20.09 6.6091562 20.941 7 22 7 C 22.792 7 23.461 6.7804219 24 6.4824219 L 24 4.0234375 C 23.526 4.6114375 22.796 5 22 5 C 20.82 5 19.762 4.102 19.5 3 C 19.219 4.07 18.16 5 17 5 C 16.165 5 15.395875 4.544625 14.921875 3.890625 C 15.307875 3.026625 15.684406 2.221375 15.941406 1.734375 L 16.330078 1 L 7 1 z M 0 16 L 0 23 L 24 23 L 24 16 L 21.464844 16 L 21.167969 16.445312 C 20.101969 18.045313 18.316531 19 16.394531 19 L 7.6054688 19 C 5.6824687 19 3.8980312 18.045313 2.8320312 16.445312 L 2.5351562 16 L 0 16 z"/></svg>