<?xml version="1.0" encoding="UTF-8" standalone="no" ?>
<!DOCTYPE svg PUBLIC "-//W3C//DTD SVG 1.1//EN" "http://www.w3.org/Graphics/SVG/1.1/DTD/svg11.dtd">
<svg xmlns="http://www.w3.org/2000/svg" xmlns:xlink="http://www.w3.org/1999/xlink" version="1.1" width="200" height="200" viewBox="0 0 200 200" xml:space="preserve">
<desc>Created with Fabric.js 5.2.4</desc>
<defs>
</defs>
<rect x="0" y="0" width="100%" height="100%" fill="transparent"></rect>
<g transform="matrix(0 0 0 0 0 0)" id="12d2ec8f-40e7-47c4-942a-7b67e58e8510"  >
</g>
<g transform="matrix(1 0 0 1 100 100)" id="26b99c11-0a4b-4c21-b514-c9bee3db51ff"  >
<rect style="stroke: none; stroke-width: 1; stroke-dasharray: none; stroke-linecap: butt; stroke-dashoffset: 0; stroke-linejoin: miter; stroke-miterlimit: 4; fill: rgb(255,255,255); fill-rule: nonzero; opacity: 1; visibility: hidden;" vector-effect="non-scaling-stroke"  x="-100" y="-100" rx="0" ry="0" width="200" height="200" />
</g>
<g transform="matrix(1 0 0 1 100 100)"  >
<path style="stroke: rgb(0,0,0); stroke-width: 0; stroke-dasharray: none; stroke-linecap: butt; stroke-dashoffset: 0; stroke-linejoin: miter; stroke-miterlimit: 4; fill: rgb(255,255,255); fill-rule: nonzero; opacity: 1;" vector-effect="non-scaling-stroke"  transform=" translate(-12, -12)" d="M 20.92 6.62 C 20.87240561187003 6.497248682277575 20.801040629317033 6.385103709694298 20.71 6.29 L 17.71 3.29 C 17.317877827620137 2.8978778276201362 16.682122172379863 2.8978778276201362 16.29 3.289999999999999 C 15.897877827620135 3.682122172379862 15.897877827620135 4.317877827620136 16.29 4.71 L 17.59 6 L 9 6 C 7.343145750507619 6 6 7.343145750507619 6 9 L 6 17.59 L 4.71 16.29 C 4.317877827620136 15.897877827620135 3.682122172379862 15.897877827620137 3.289999999999999 16.29 C 2.897877827620136 16.682122172379863 2.8978778276201362 17.317877827620137 3.2900000000000005 17.71 L 6.29 20.71 C 6.385103709694298 20.801040629317033 6.497248682277575 20.87240561187003 6.62 20.92 C 6.862039879942793 21.026976786122418 7.137960120057207 21.026976786122418 7.38 20.92 C 7.502751317722425 20.87240561187003 7.614896290305702 20.801040629317033 7.71 20.71 L 10.71 17.71 C 11.102122172379865 17.317877827620137 11.102122172379865 16.682122172379863 10.71 16.29 C 10.317877827620139 15.897877827620135 9.682122172379865 15.897877827620135 9.290000000000001 16.29 L 8 17.59 L 8 9 C 8 8.447715250169207 8.447715250169207 8 9 8 L 17.59 8 L 16.29 9.29 C 16.1006873491769 9.477766599905555 15.99420167565833 9.73336246362944 15.99420167565833 10 C 15.99420167565833 10.266637536370558 16.1006873491769 10.522233400094443 16.29 10.709999999999999 C 16.477766599905557 10.899312650823097 16.73336246362944 11.00579832434167 17 11.00579832434167 C 17.26663753637056 11.00579832434167 17.522233400094443 10.899312650823095 17.71 10.709999999999999 L 20.71 7.709999999999999 C 20.801040629317033 7.614896290305701 20.87240561187003 7.502751317722424 20.92 7.379999999999999 C 21.020018018149635 7.136538644253423 21.020018018149635 6.863461355746576 20.92 6.62 Z" stroke-linecap="round" />
</g>
<g transform="matrix(1 0 0 1 50 50)"  >
<rect style="stroke: none; stroke-width: 1; stroke-dasharray: none; stroke-linecap: butt; stroke-dashoffset: 0; stroke-linejoin: miter; stroke-miterlimit: 4; fill: rgb(255,255,255); fill-opacity: 0; fill-rule: nonzero; opacity: 1;" vector-effect="non-scaling-stroke"  x="-50" y="-50" rx="0" ry="0" width="100" height="100" />
</g>
<g transform="matrix(1 0 0 1 100 100)"  >
<rect style="stroke: none; stroke-width: 1; stroke-dasharray: none; stroke-linecap: butt; stroke-dashoffset: 0; stroke-linejoin: miter; stroke-miterlimit: 4; fill: rgb(255,255,255); fill-rule: nonzero; opacity: 1; visibility: hidden;" vector-effect="non-scaling-stroke"  x="-100" y="-100" rx="0" ry="0" width="200" height="200" />
</g>
<g transform="matrix(0.85 1.4 -0.65 0.39 131.33 83.9)"  >
<path style="stroke: rgb(255,255,255); stroke-width: 1; stroke-dasharray: none; stroke-linecap: butt; stroke-dashoffset: 0; stroke-linejoin: miter; stroke-miterlimit: 4; fill: rgb(255,255,255); fill-rule: nonzero; opacity: 1;" vector-effect="non-scaling-stroke"  transform=" translate(-67.91, -50.37)" d="M 68.245 26.9 C 69.796 30.471999999999998 70.98700000000001 34.25 71.81400000000001 38.08 C 72.59100000000001 41.91 73.00500000000001 45.792 73.00500000000001 49.724999999999994 C 73.00500000000001 53.864999999999995 72.54100000000001 58.05799999999999 71.66000000000001 62.09499999999999 C 70.72900000000001 66.18499999999999 69.382 70.16999999999999 67.56900000000002 73.94899999999998 C 67.05200000000002 75.08699999999999 64.88100000000001 75.91599999999998 63.73900000000002 75.13799999999998 C 63.173000000000016 74.72399999999998 62.862000000000016 73.89499999999998 62.80800000000002 73.01599999999998 L 62.80800000000002 72.70599999999997 C 62.80800000000002 72.39499999999997 62.86200000000002 72.08499999999998 62.96500000000002 71.77299999999997 C 64.04900000000002 68.30599999999997 64.88000000000002 64.73499999999997 65.39700000000002 61.00799999999997 C 65.96400000000001 57.33299999999997 66.22500000000002 53.554999999999964 66.22500000000002 49.72399999999997 C 66.22500000000002 46.10099999999997 65.96400000000003 42.58099999999997 65.50000000000003 39.11499999999997 C 65.03300000000003 35.59499999999996 64.31000000000003 32.230999999999966 63.32500000000003 28.917999999999967 C 62.96500000000003 27.676999999999968 63.37900000000003 26.175999999999966 64.20600000000003 25.606999999999967 C 65.346 24.83 67.674 25.659 68.245 26.9 z" stroke-linecap="round" />
</g>
<g transform="matrix(0.32 0 0 0.41 85 49.25)"  >
<rect style="stroke: rgb(249,249,249); stroke-width: 0; stroke-dasharray: none; stroke-linecap: butt; stroke-dashoffset: 0; stroke-linejoin: miter; stroke-miterlimit: 4; fill: rgb(255,255,255); fill-rule: nonzero; opacity: 1;" vector-effect="non-scaling-stroke"  x="-37.165" y="-37.165" rx="0" ry="0" width="74.33" height="74.33" />
</g>
<g transform="matrix(0.76 1.56 -0.68 0.33 145.32 110)"  >
<path style="stroke: rgb(255,255,255); stroke-width: 1; stroke-dasharray: none; stroke-linecap: butt; stroke-dashoffset: 0; stroke-linejoin: miter; stroke-miterlimit: 4; fill: rgb(255,255,255); fill-rule: nonzero; opacity: 1;" vector-effect="non-scaling-stroke"  transform=" translate(-78.55, -49.72)" d="M 72.542 14.272 C 73.626 13.443 75.595 14.065 76.269 15.151 C 79.268 20.431 81.59700000000001 26.021 83.152 31.818 C 84.703 37.666000000000004 85.531 43.67 85.531 49.725 C 85.531 55.78 84.703 61.784 83.152 67.581 C 81.597 73.378 79.268 79.019 76.269 84.247 C 75.595 85.385 73.626 86.008 72.542 85.179 C 71.504 84.403 71.351 82.85000000000001 71.81400000000001 81.764 C 73.93900000000001 76.898 75.54100000000001 71.722 76.62800000000001 66.288 C 77.71600000000001 60.904999999999994 78.28600000000002 55.367 78.28600000000002 49.724999999999994 C 78.28600000000002 44.08299999999999 77.71600000000002 38.49399999999999 76.62800000000001 33.11 C 75.54000000000002 27.729 73.93900000000002 22.500999999999998 71.81400000000002 17.686999999999998 C 71.351 16.549 71.558 14.996 72.542 14.272 z" stroke-linecap="round" />
</g>
<g transform="matrix(0.32 0 0 0.41 121 49.25)"  >
<rect style="stroke: rgb(249,249,249); stroke-width: 0; stroke-dasharray: none; stroke-linecap: butt; stroke-dashoffset: 0; stroke-linejoin: miter; stroke-miterlimit: 4; fill: rgb(255,255,255); fill-rule: nonzero; opacity: 1;" vector-effect="non-scaling-stroke"  x="-37.165" y="-37.165" rx="0" ry="0" width="74.33" height="74.33" />
</g>
<g transform="matrix(0.82 1.73 -0.87 0.41 158.65 141.74)"  >
<path style="stroke: rgb(255,255,255); stroke-width: 1; stroke-dasharray: none; stroke-linecap: butt; stroke-dashoffset: 0; stroke-linejoin: miter; stroke-miterlimit: 4; fill: rgb(255,255,255); fill-rule: nonzero; opacity: 1;" vector-effect="non-scaling-stroke"  transform=" translate(-78.55, -49.72)" d="M 72.542 14.272 C 73.626 13.443 75.595 14.065 76.269 15.151 C 79.268 20.431 81.59700000000001 26.021 83.152 31.818 C 84.703 37.666000000000004 85.531 43.67 85.531 49.725 C 85.531 55.78 84.703 61.784 83.152 67.581 C 81.597 73.378 79.268 79.019 76.269 84.247 C 75.595 85.385 73.626 86.008 72.542 85.179 C 71.504 84.403 71.351 82.85000000000001 71.81400000000001 81.764 C 73.93900000000001 76.898 75.54100000000001 71.722 76.62800000000001 66.288 C 77.71600000000001 60.904999999999994 78.28600000000002 55.367 78.28600000000002 49.724999999999994 C 78.28600000000002 44.08299999999999 77.71600000000002 38.49399999999999 76.62800000000001 33.11 C 75.54000000000002 27.729 73.93900000000002 22.500999999999998 71.81400000000002 17.686999999999998 C 71.351 16.549 71.558 14.996 72.542 14.272 z" stroke-linecap="round" />
</g>
<g transform="matrix(-0.7 1.48 -0.69 -0.33 74 84.91)"  >
<path style="stroke: rgb(255,255,255); stroke-width: 1; stroke-dasharray: none; stroke-linecap: butt; stroke-dashoffset: 0; stroke-linejoin: miter; stroke-miterlimit: 4; fill: rgb(255,255,255); fill-rule: nonzero; opacity: 1;" vector-effect="non-scaling-stroke"  transform=" translate(-67.91, -50.37)" d="M 68.245 26.9 C 69.796 30.471999999999998 70.98700000000001 34.25 71.81400000000001 38.08 C 72.59100000000001 41.91 73.00500000000001 45.792 73.00500000000001 49.724999999999994 C 73.00500000000001 53.864999999999995 72.54100000000001 58.05799999999999 71.66000000000001 62.09499999999999 C 70.72900000000001 66.18499999999999 69.382 70.16999999999999 67.56900000000002 73.94899999999998 C 67.05200000000002 75.08699999999999 64.88100000000001 75.91599999999998 63.73900000000002 75.13799999999998 C 63.173000000000016 74.72399999999998 62.862000000000016 73.89499999999998 62.80800000000002 73.01599999999998 L 62.80800000000002 72.70599999999997 C 62.80800000000002 72.39499999999997 62.86200000000002 72.08499999999998 62.96500000000002 71.77299999999997 C 64.04900000000002 68.30599999999997 64.88000000000002 64.73499999999997 65.39700000000002 61.00799999999997 C 65.96400000000001 57.33299999999997 66.22500000000002 53.554999999999964 66.22500000000002 49.72399999999997 C 66.22500000000002 46.10099999999997 65.96400000000003 42.58099999999997 65.50000000000003 39.11499999999997 C 65.03300000000003 35.59499999999996 64.31000000000003 32.230999999999966 63.32500000000003 28.917999999999967 C 62.96500000000003 27.676999999999968 63.37900000000003 26.175999999999966 64.20600000000003 25.606999999999967 C 65.346 24.83 67.674 25.659 68.245 26.9 z" stroke-linecap="round" />
</g>
<g transform="matrix(-0.78 1.56 -0.68 -0.34 60.32 110.01)"  >
<path style="stroke: rgb(255,255,255); stroke-width: 1; stroke-dasharray: none; stroke-linecap: butt; stroke-dashoffset: 0; stroke-linejoin: miter; stroke-miterlimit: 4; fill: rgb(255,255,255); fill-rule: nonzero; opacity: 1;" vector-effect="non-scaling-stroke"  transform=" translate(-78.55, -49.72)" d="M 72.542 14.272 C 73.626 13.443 75.595 14.065 76.269 15.151 C 79.268 20.431 81.59700000000001 26.021 83.152 31.818 C 84.703 37.666000000000004 85.531 43.67 85.531 49.725 C 85.531 55.78 84.703 61.784 83.152 67.581 C 81.597 73.378 79.268 79.019 76.269 84.247 C 75.595 85.385 73.626 86.008 72.542 85.179 C 71.504 84.403 71.351 82.85000000000001 71.81400000000001 81.764 C 73.93900000000001 76.898 75.54100000000001 71.722 76.62800000000001 66.288 C 77.71600000000001 60.904999999999994 78.28600000000002 55.367 78.28600000000002 49.724999999999994 C 78.28600000000002 44.08299999999999 77.71600000000002 38.49399999999999 76.62800000000001 33.11 C 75.54000000000002 27.729 73.93900000000002 22.500999999999998 71.81400000000002 17.686999999999998 C 71.351 16.549 71.558 14.996 72.542 14.272 z" stroke-linecap="round" />
</g>
<g transform="matrix(-0.82 1.72 -0.87 -0.41 45.72 141.69)"  >
<path style="stroke: rgb(255,255,255); stroke-width: 1; stroke-dasharray: none; stroke-linecap: butt; stroke-dashoffset: 0; stroke-linejoin: miter; stroke-miterlimit: 4; fill: rgb(255,255,255); fill-rule: nonzero; opacity: 1;" vector-effect="non-scaling-stroke"  transform=" translate(-78.55, -49.72)" d="M 72.542 14.272 C 73.626 13.443 75.595 14.065 76.269 15.151 C 79.268 20.431 81.59700000000001 26.021 83.152 31.818 C 84.703 37.666000000000004 85.531 43.67 85.531 49.725 C 85.531 55.78 84.703 61.784 83.152 67.581 C 81.597 73.378 79.268 79.019 76.269 84.247 C 75.595 85.385 73.626 86.008 72.542 85.179 C 71.504 84.403 71.351 82.85000000000001 71.81400000000001 81.764 C 73.93900000000001 76.898 75.54100000000001 71.722 76.62800000000001 66.288 C 77.71600000000001 60.904999999999994 78.28600000000002 55.367 78.28600000000002 49.724999999999994 C 78.28600000000002 44.08299999999999 77.71600000000002 38.49399999999999 76.62800000000001 33.11 C 75.54000000000002 27.729 73.93900000000002 22.500999999999998 71.81400000000002 17.686999999999998 C 71.351 16.549 71.558 14.996 72.542 14.272 z" stroke-linecap="round" />
</g>
</svg>