<?xml version="1.0"?><svg xmlns="http://www.w3.org/2000/svg"  viewBox="0 0 24 24" width="192px" height="192px">    <path d="M 5 2 C 3.895 2 3 2.895 3 4 L 3 13 C 3 14.105 3.895 15 5 15 L 19 15 C 20.105 15 21 14.105 21 13 L 21 4 C 21 2.895 20.105 2 19 2 L 13 2 L 13 7 L 14.400391 7 C 14.723391 7 15.014672 7.1951406 15.138672 7.4941406 C 15.261672 7.7941406 15.194797 8.1362344 14.966797 8.3652344 L 12.566406 10.765625 C 12.253406 11.078625 11.747547 11.078625 11.435547 10.765625 L 9.0351562 8.3652344 C 8.8811563 8.2112344 8.8007812 8.0087812 8.8007812 7.8007812 C 8.8007812 7.6977813 8.8203281 7.5931406 8.8613281 7.4941406 C 8.9853281 7.1951406 9.2766094 7 9.5996094 7 L 11 7 L 11 2 L 5 2 z M 3 17 L 3 18 L 4 18 L 4 22 L 5 22 L 5 18 L 6 18 L 6 17 L 3 17 z M 7 17 L 7 22 L 8 22 L 8 20.117188 L 8.9414062 22 L 10.058594 22 L 9.0117188 19.904297 C 9.5877188 19.694297 10 19.148 10 18.5 C 10 17.672 9.328 17 8.5 17 L 8 17 L 7 17 z M 11 17 L 11 22 L 12 22 L 12 17 L 11 17 z M 14.345703 17 L 13 22 L 14.052734 22 L 14.310547 21 L 15.677734 21 L 15.9375 22 L 17 22 L 15.646484 17 L 14.345703 17 z M 18 17 L 18 22 L 21 22 L 21 21 L 19 21 L 19 17 L 18 17 z M 8 18 L 8.5 18 C 8.776 18 9 18.224 9 18.5 C 9 18.776 8.776 19 8.5 19 L 8 19 L 8 18 z M 14.992188 18.353516 L 15.419922 20 L 14.568359 20 L 14.992188 18.353516 z"/></svg>