<?xml version="1.0" encoding="UTF-8" standalone="no"?>
<!-- Uploaded to: SVG Repo, www.svgrepo.com, Generator: SVG Repo Mixer Tools -->

<svg
   width="800px"
   height="800px"
   viewBox="0 -1.5 13 13"
   version="1.1"
   id="svg1"
   sodipodi:docname="pulse_cone_narrow_ultra.svg"
   inkscape:version="1.3.2 (091e20e, 2023-11-25, custom)"
   xmlns:inkscape="http://www.inkscape.org/namespaces/inkscape"
   xmlns:sodipodi="http://sodipodi.sourceforge.net/DTD/sodipodi-0.dtd"
   xmlns="http://www.w3.org/2000/svg"
   xmlns:svg="http://www.w3.org/2000/svg"
   xmlns:rdf="http://www.w3.org/1999/02/22-rdf-syntax-ns#"
   xmlns:cc="http://creativecommons.org/ns#"
   xmlns:dc="http://purl.org/dc/elements/1.1/">

  <title
     id="title1">pulse_cone_wide</title>
  <desc
     id="desc1">Wide angle transucer frequency</desc>
  <defs
     id="defs1">
    <!-- Your definitions if any -->
  </defs>
  <!-- New group wrapping everything to apply the rotation -->
  <g
     transform="rotate(180, 6.5, 5)"
     id="g1">
    <g
       id="Page-1"
       stroke="none"
       stroke-width="1"
       fill="none"
       fill-rule="evenodd">
      <g
         id="Dribbble-Light-Preview"
         transform="translate(-423.000000, -3604.000000)"
         fill="#FFFFFF">
        <g
           id="icons"
           transform="matrix(1.2817739,0,0,1.2389537,-49.327341,-664.78617)">
          <path
             d="m 372.70603,3452.6559 0.29194,0.7113 c 0.27752,0.4079 0.72681,0.4079 1.00362,0 l 0.28446,-0.7375 c -0.43429,-0.8148 -1.13825,-0.8148 -1.57254,0 m -0.47313,-1.4681 0.0178,-0.01 c 0.93415,-0.5935 1.58215,-0.589 2.48412,0 l 0.5927,-1.5917 c -1.45371,-1.0135 -2.56887,-0.9264 -3.66951,0.1242 m 4.16562,-1.4707 7.1e-4,-0.013 c -2.01111,-1.0958 -2.94722,-1.0369 -4.66414,0 l -0.29777,-0.6916 c -0.1351,-0.3138 -0.40554,-0.9204 -0.18939,-1.3116 1.80867,-1.0634 3.26285,-1.2355 5.42878,-0.1453 0.3749,0.1887 0.19674,1.0146 0.0203,1.4569"
             id="pulse_cone_wide"
             sodipodi:nodetypes="cccccccccccccscsc" />
        </g>
      </g>
    </g>
  </g>
  <metadata
     id="metadata1">
    <rdf:RDF>
      <cc:Work
         rdf:about="">
        <dc:title>pulse_cone_wide</dc:title>
      </cc:Work>
    </rdf:RDF>
  </metadata>
</svg>
