<?xml version="1.0" encoding="UTF-8" standalone="no" ?>
<!DOCTYPE svg PUBLIC "-//W3C//DTD SVG 1.1//EN" "http://www.w3.org/Graphics/SVG/1.1/DTD/svg11.dtd">
<svg xmlns="http://www.w3.org/2000/svg" xmlns:xlink="http://www.w3.org/1999/xlink" version="1.1" width="200" height="200" viewBox="0 0 200 200" xml:space="preserve">
<desc>Created with Fabric.js 5.2.4</desc>
<defs>
</defs>
<rect x="0" y="0" width="100%" height="100%" fill="transparent"></rect>
<g transform="matrix(1 0 0 1 100 100)" id="26b99c11-0a4b-4c21-b514-c9bee3db51ff"  >
<rect style="stroke: none; stroke-width: 1; stroke-dasharray: none; stroke-linecap: butt; stroke-dashoffset: 0; stroke-linejoin: miter; stroke-miterlimit: 4; fill: rgb(255,255,255); fill-rule: nonzero; opacity: 1; visibility: hidden;" vector-effect="non-scaling-stroke"  x="-100" y="-100" rx="0" ry="0" width="200" height="200" />
</g>
<g transform="matrix(Infinity NaN NaN Infinity 0 0)" id="12d2ec8f-40e7-47c4-942a-7b67e58e8510"  >
</g>
<g transform="matrix(0 2.27 -1.7 0 100.49 72.38)"  >
<path style="stroke: rgb(255,255,255); stroke-width: 1; stroke-dasharray: none; stroke-linecap: butt; stroke-dashoffset: 0; stroke-linejoin: miter; stroke-miterlimit: 4; fill: rgb(255,255,255); fill-rule: nonzero; opacity: 1;" vector-effect="non-scaling-stroke"  transform=" translate(-67.91, -50.37)" d="M 68.245 26.9 C 69.796 30.471999999999998 70.98700000000001 34.25 71.81400000000001 38.08 C 72.59100000000001 41.91 73.00500000000001 45.792 73.00500000000001 49.724999999999994 C 73.00500000000001 53.864999999999995 72.54100000000001 58.05799999999999 71.66000000000001 62.09499999999999 C 70.72900000000001 66.18499999999999 69.382 70.16999999999999 67.56900000000002 73.94899999999998 C 67.05200000000002 75.08699999999999 64.88100000000001 75.91599999999998 63.73900000000002 75.13799999999998 C 63.173000000000016 74.72399999999998 62.862000000000016 73.89499999999998 62.80800000000002 73.01599999999998 L 62.80800000000002 72.70599999999997 C 62.80800000000002 72.39499999999997 62.86200000000002 72.08499999999998 62.96500000000002 71.77299999999997 C 64.04900000000002 68.30599999999997 64.88000000000002 64.73499999999997 65.39700000000002 61.00799999999997 C 65.96400000000001 57.33299999999997 66.22500000000002 53.554999999999964 66.22500000000002 49.72399999999997 C 66.22500000000002 46.10099999999997 65.96400000000003 42.58099999999997 65.50000000000003 39.11499999999997 C 65.03300000000003 35.59499999999996 64.31000000000003 32.230999999999966 63.32500000000003 28.917999999999967 C 62.96500000000003 27.676999999999968 63.37900000000003 26.175999999999966 64.20600000000003 25.606999999999967 C 65.346 24.83 67.674 25.659 68.245 26.9 z" stroke-linecap="round" />
</g>
<g transform="matrix(0 2.22 -1.9 0 100 100)"  >
<path style="stroke: rgb(255,255,255); stroke-width: 1; stroke-dasharray: none; stroke-linecap: butt; stroke-dashoffset: 0; stroke-linejoin: miter; stroke-miterlimit: 4; fill: rgb(255,255,255); fill-rule: nonzero; opacity: 1;" vector-effect="non-scaling-stroke"  transform=" translate(-78.55, -49.72)" d="M 72.542 14.272 C 73.626 13.443 75.595 14.065 76.269 15.151 C 79.268 20.431 81.59700000000001 26.021 83.152 31.818 C 84.703 37.666000000000004 85.531 43.67 85.531 49.725 C 85.531 55.78 84.703 61.784 83.152 67.581 C 81.597 73.378 79.268 79.019 76.269 84.247 C 75.595 85.385 73.626 86.008 72.542 85.179 C 71.504 84.403 71.351 82.85000000000001 71.81400000000001 81.764 C 73.93900000000001 76.898 75.54100000000001 71.722 76.62800000000001 66.288 C 77.71600000000001 60.904999999999994 78.28600000000002 55.367 78.28600000000002 49.724999999999994 C 78.28600000000002 44.08299999999999 77.71600000000002 38.49399999999999 76.62800000000001 33.11 C 75.54000000000002 27.729 73.93900000000002 22.500999999999998 71.81400000000002 17.686999999999998 C 71.351 16.549 71.558 14.996 72.542 14.272 z" stroke-linecap="round" />
</g>
<g transform="matrix(0.32 0 0 0.41 100 44.25)" id="e236619c-89cd-4575-9c80-3d684400cd03"  >
<rect style="stroke: rgb(249,249,249); stroke-width: 0; stroke-dasharray: none; stroke-linecap: butt; stroke-dashoffset: 0; stroke-linejoin: miter; stroke-miterlimit: 4; fill: rgb(255,255,255); fill-rule: nonzero; opacity: 1;" vector-effect="non-scaling-stroke"  x="-37.167" y="-37.167" rx="0" ry="0" width="74.334" height="74.334" />
</g>
<g transform="matrix(0.53 0 0 0.53 100 147.95)"  >
<path style="stroke: rgb(255,255,255); stroke-width: 1; stroke-dasharray: none; stroke-linecap: butt; stroke-dashoffset: 0; stroke-linejoin: miter; stroke-miterlimit: 10; fill: rgb(255,255,255); fill-rule: nonzero; opacity: 1;" vector-effect="non-scaling-stroke"  transform=" translate(-129.07, -214.4)" d="M 49.14167 218.355 L 35.971669999999996 215.08499999999998 L 40.78167 172.695 L 87.53166999999999 172.695 L 87.53166999999999 186.495 L 54.36166999999999 186.495 L 52.29166999999999 204.435 C 56.22499999999999 202.335 60.40833999999999 201.285 64.84167 201.285 L 64.84167 201.285 C 72.78833999999999 201.285 79.01499999999999 203.74833 83.52167 208.67499999999998 C 88.02834 213.60166999999998 90.28167 220.49499999999998 90.28167 229.355 L 90.28167 229.355 C 90.28167 234.74167 89.14500000000001 239.56167 86.87167000000001 243.815 C 84.59834000000001 248.075 81.34167000000001 251.38166999999999 77.10167000000001 253.73499999999999 C 72.86167000000002 256.08167 67.85834000000001 257.255 62.091670000000015 257.255 L 62.091670000000015 257.255 C 57.051670000000016 257.255 52.371670000000016 256.23167 48.051670000000016 254.185 C 43.738340000000015 252.145 40.33167000000002 249.27167 37.83167000000002 245.565 C 35.32500000000002 241.85833 33.99834000000001 237.63833 33.85167000000002 232.905 L 33.85167000000002 232.905 L 50.23167000000002 232.905 C 50.578340000000026 236.37833 51.791670000000025 239.08167 53.87167000000002 241.015 C 55.95167000000002 242.94167 58.67167000000002 243.90499999999997 62.03167000000002 243.90499999999997 L 62.03167000000002 243.90499999999997 C 65.77834000000001 243.90499999999997 68.66167000000002 242.55832999999998 70.68167000000003 239.86499999999998 C 72.70834000000002 237.17166999999998 73.72167000000003 233.36166999999998 73.72167000000003 228.43499999999997 L 73.72167000000003 228.43499999999997 C 73.72167000000003 223.70166999999998 72.55834000000003 220.075 70.23167000000004 217.55499999999998 C 67.89834000000003 215.02832999999998 64.59167000000004 213.765 60.311670000000035 213.765 L 60.311670000000035 213.765 C 56.37834000000004 213.765 53.19167000000004 214.79833 50.75167000000003 216.86499999999998 L 50.75167000000003 216.86499999999998 z M 141.04167 172.575 L 141.04167 256.105 L 124.48167000000001 256.105 L 124.48167000000001 192.28500000000003 L 104.72167 198.41500000000002 L 104.72167 184.955 L 139.26167 172.57500000000002 z M 224.28167 206.265 L 224.28167 221.61499999999998 C 224.28167 233.15499999999997 221.89499999999998 241.97832999999997 217.12167 248.08499999999998 C 212.34834 254.19832999999997 205.35834 257.255 196.15167 257.255 L 196.15167 257.255 C 187.065 257.255 180.115 254.255 175.30167 248.255 C 170.48834 242.26166999999998 168.025 233.66833 167.91167000000002 222.475 L 167.91167000000002 222.475 L 167.91167000000002 207.125 C 167.91167000000002 195.47833 170.32834000000003 186.635 175.16167000000002 180.595 C 179.98834000000002 174.56167 186.94834000000003 171.545 196.04167 171.545 C 205.12834 171.545 212.07834000000003 174.535 216.89167 180.515 C 221.705 186.48833 224.16834 195.07166999999998 224.28167 206.265 z M 207.73167 224.595 L 207.73167 204.775 C 207.73167 197.86167 206.785 192.82833 204.89167 189.675 C 202.99834 186.52833 200.04834 184.955 196.04167 184.955 L 196.04167 184.955 C 192.14167 184.955 189.26834000000002 186.45167 187.42167 189.44500000000002 C 185.56834 192.44500000000002 184.585 197.13500000000002 184.47167000000002 203.51500000000001 L 184.47167000000002 203.51500000000001 L 184.47167000000002 223.79500000000002 C 184.47167000000002 230.59500000000003 185.395 235.645 187.24167000000003 238.94500000000002 C 189.09500000000003 242.25167000000002 192.06500000000003 243.90500000000003 196.15167000000002 243.90500000000003 L 196.15167000000002 243.90500000000003 C 200.205 243.90500000000003 203.12834000000004 242.32167000000004 204.92167000000003 239.15500000000003 C 206.71500000000003 235.98167000000004 207.65167000000002 231.12833000000003 207.73167000000004 224.59500000000003 z" stroke-linecap="round" />
</g>
</svg>