<svg xmlns="http://www.w3.org/2000/svg" xmlns:xlink="http://www.w3.org/1999/xlink" viewBox="0,0,256,256" width="192px" height="192px" fill-rule="nonzero"><g fill="#fffff0" fill-rule="nonzero" stroke="none" stroke-width="1" stroke-linecap="butt" stroke-linejoin="miter" stroke-miterlimit="10" stroke-dasharray="" stroke-dashoffset="0" font-family="none" font-weight="none" font-size="none" text-anchor="none" style="mix-blend-mode: normal"><g transform="scale(10.66667,10.66667)"><path d="M2,3c-0.55226,0.00006 -0.99994,0.44774 -1,1v15c0,1.09306 0.90694,2 2,2h18c1.09306,0 2,-0.90694 2,-2v-15c-0.00006,-0.55226 -0.44774,-0.99994 -1,-1zM3,5h18v2.91016c-0.22608,0.05135 -0.46961,0.08984 -0.75,0.08984c-1.284,0 -2.02097,-0.68703 -2.04297,-0.70703c-0.383,-0.385 -1.0123,-0.38277 -1.4043,-0.00977c-0.031,0.029 -0.76873,0.7168 -2.05273,0.7168c-1.284,0 -2.02097,-0.68703 -2.04297,-0.70703c-0.383,-0.385 -1.0123,-0.38277 -1.4043,-0.00977c-0.031,0.029 -0.76873,0.7168 -2.05273,0.7168c-1.284,0 -2.02097,-0.68703 -2.04297,-0.70703c-0.383,-0.385 -1.0123,-0.38277 -1.4043,-0.00977c-0.031,0.029 -0.76873,0.7168 -2.05273,0.7168c-0.28056,0 -0.52411,-0.03857 -0.75,-0.08984zM19,11c0.552,0 1,0.448 1,1c0,0.552 -0.448,1 -1,1c-0.552,0 -1,-0.448 -1,-1c0,-0.552 0.448,-1 1,-1zM9.5,13c1.442,0 2.83314,1.11369 3.36914,1.67969c0.173,0.182 0.173,0.46058 0,0.64258c-0.536,0.565 -1.92714,1.67773 -3.36914,1.67773c-1.933,0 -3.5,-2 -3.5,-2c0,0 -0.4713,1.15945 -1.5293,1.43945c-0.236,0.063 -0.4707,-0.11928 -0.4707,-0.36328v-2.15234c0,-0.244 0.2347,-0.42628 0.4707,-0.36328c1.058,0.28 1.5293,1.43945 1.5293,1.43945c0,0 1.567,-2 3.5,-2zM16,14c0.552,0 1,0.448 1,1c0,0.552 -0.448,1 -1,1c-0.552,0 -1,-0.448 -1,-1c0,-0.552 0.448,-1 1,-1z"></path></g></g></svg>