<svg xmlns="http://www.w3.org/2000/svg" xmlns:xlink="http://www.w3.org/1999/xlink" viewBox="0,0,256,256" width="144px" height="144px" fill-rule="nonzero"><g fill="#fffff0" fill-rule="nonzero" stroke="none" stroke-width="1" stroke-linecap="butt" stroke-linejoin="miter" stroke-miterlimit="10" stroke-dasharray="" stroke-dashoffset="0" font-family="none" font-weight="none" font-size="none" text-anchor="none" style="mix-blend-mode: normal"><g transform="translate(0,74.1) scale(10.66667,10.66667)"><path d="M7,3.3125c-3.10156,1.80078 -5,5.08594 -5,8.6875c0,3.5 1.90625,6.79297 4.90625,8.59375l1,-1.6875c-2.39844,-1.5 -3.90625,-4.10547 -3.90625,-6.90625c0,-2.89844 1.5,-5.50781 4,-6.90625zM17,3.3125l-1,1.6875c2.5,1.5 4,4.10156 4,7c0,2.80078 -1.50781,5.40625 -3.90625,6.90625l1,1.6875c3,-1.80078 4.90625,-5.09375 4.90625,-8.59375c0,-3.60156 -1.89844,-6.88672 -5,-8.6875zM9,6.8125c-1.80078,1.10156 -3,3.08594 -3,5.1875c0,2.10156 1.10547,3.99219 2.90625,5.09375l1,-1.6875c-1.19922,-0.69922 -1.90625,-2.00781 -1.90625,-3.40625c0,-1.39844 0.80078,-2.69922 2,-3.5zM15,6.8125l-1,1.6875c1.19922,0.80078 2,2.10156 2,3.5c0,1.39844 -0.70703,2.70703 -1.90625,3.40625l1,1.6875c1.80078,-1.10156 2.90625,-2.99219 2.90625,-5.09375c0,-2.10156 -1.19922,-4.08594 -3,-5.1875zM12,10c-1.10547,0 -2,0.89453 -2,2c0,1.10547 0.89453,2 2,2c1.10547,0 2,-0.89453 2,-2c0,-1.10547 -0.89453,-2 -2,-2z"></path></g></g><g fill="#fffff0" fill-rule="nonzero" stroke="none" stroke-width="1" stroke-linecap="butt" stroke-linejoin="miter" stroke-miterlimit="10" stroke-dasharray="" stroke-dashoffset="0" font-family="none" font-weight="none" font-size="none" text-anchor="none" style="mix-blend-mode: normal"><g><path d="M62.70833,71.9v0c0,-1.84 -0.91,-3.29 -2.73,-4.35c-1.82667,-1.05333 -4.75333,-1.99667 -8.78,-2.83v0c-13.4,-2.81333 -20.1,-8.51 -20.1,-17.09v0c0,-5 2.07333,-9.17333 6.22,-12.52c4.15333,-3.35333 9.58,-5.03 16.28,-5.03v0c7.15333,0 12.87333,1.68333 17.16,5.05c4.28667,3.36667 6.43,7.74333 6.43,13.13v0h-15.05c0,-2.15333 -0.69333,-3.93333 -2.08,-5.34c-1.39333,-1.40667 -3.56333,-2.11 -6.51,-2.11v0c-2.54,0 -4.50333,0.57333 -5.89,1.72c-1.38667,1.14667 -2.08,2.60333 -2.08,4.37v0c0,1.66667 0.79,3.01333 2.37,4.04c1.58,1.02667 4.24333,1.91333 7.99,2.66c3.75333,0.74667 6.91333,1.58667 9.48,2.52v0c7.95333,2.92 11.93,7.97333 11.93,15.16v0c0,5.14 -2.20667,9.29667 -6.62,12.47c-4.40667,3.18 -10.1,4.77 -17.08,4.77v0c-4.72,0 -8.91333,-0.84333 -12.58,-2.53c-3.66,-1.68 -6.53333,-3.98667 -8.62,-6.92c-2.08,-2.94 -3.12,-6.11 -3.12,-9.51v0h14.27c0.14,2.67333 1.13,4.72333 2.97,6.15c1.84,1.42 4.30333,2.13 7.39,2.13v0c2.88,0 5.06,-0.54667 6.54,-1.64c1.47333,-1.09333 2.21,-2.52667 2.21,-4.3zM102.91833,31.12v56.36h-15.1v-56.36zM86.92833,16.54v0c0,-2.26 0.75667,-4.11667 2.27,-5.57c1.50667,-1.46 3.56333,-2.19 6.17,-2.19v0c2.56667,0 4.61333,0.73 6.14,2.19c1.53333,1.45333 2.3,3.31 2.3,5.57v0c0,2.29333 -0.77333,4.16667 -2.32,5.62c-1.54667,1.46 -3.58667,2.19 -6.12,2.19c-2.53333,0 -4.57333,-0.73 -6.12,-2.19c-1.54667,-1.45333 -2.32,-3.32667 -2.32,-5.62zM112.96833,58.88v0c0,-8.78 1.97,-15.77667 5.91,-20.99c3.94667,-5.20667 9.34,-7.81 16.18,-7.81v0c5.48,0 10.01,2.05 13.59,6.15v0v-28.75h15.1v80h-13.59l-0.73,-5.99c-3.74667,4.68667 -8.57333,7.03 -14.48,7.03v0c-6.63333,0 -11.95333,-2.61333 -15.96,-7.84c-4.01333,-5.22667 -6.02,-12.49333 -6.02,-21.8zM128.01833,59.98v0c0,5.27333 0.92,9.31667 2.76,12.13c1.84667,2.81333 4.52333,4.22 8.03,4.22v0c4.64667,0 7.92667,-1.96 9.84,-5.88v0v-22.24c-1.87333,-3.92667 -5.12,-5.89 -9.74,-5.89v0c-7.26,0 -10.89,5.88667 -10.89,17.66zM201.35833,88.52v0c-8.26667,0 -14.99333,-2.53667 -20.18,-7.61c-5.19333,-5.06667 -7.79,-11.82 -7.79,-20.26v0v-1.45c0,-5.66 1.09333,-10.72333 3.28,-15.19c2.18667,-4.46 5.28667,-7.89667 9.3,-10.31c4.00667,-2.41333 8.58,-3.62 13.72,-3.62v0c7.70667,0 13.77333,2.43 18.2,7.29c4.43333,4.86 6.65,11.75333 6.65,20.68v0v6.15h-35.89c0.48667,3.68 1.95333,6.63 4.4,8.85c2.44667,2.22 5.54667,3.33 9.3,3.33v0c5.8,0 10.33,-2.1 13.59,-6.3v0l7.4,8.28c-2.26,3.19333 -5.31667,5.68667 -9.17,7.48c-3.85333,1.78667 -8.12333,2.68 -12.81,2.68zM199.63833,42.27v0c-2.98667,0 -5.41,1.00667 -7.27,3.02c-1.85333,2.01333 -3.04,4.89667 -3.56,8.65v0h20.93v-1.2c-0.06667,-3.33333 -0.96667,-5.91333 -2.7,-7.74c-1.74,-1.82 -4.20667,-2.73 -7.4,-2.73z"></path></g></g></svg>