<svg xmlns="http://www.w3.org/2000/svg" xmlns:xlink="http://www.w3.org/1999/xlink" viewBox="0,0,256,256" width="50px" height="50px" fill-rule="nonzero"><g transform="translate(21.76,21.76) scale(0.83,0.83)"><g fill="#000000" fill-rule="nonzero" stroke="none" stroke-width="1" stroke-linecap="butt" stroke-linejoin="miter" stroke-miterlimit="10" stroke-dasharray="" stroke-dashoffset="0" font-family="none" font-weight="none" font-size="none" text-anchor="none" style="mix-blend-mode: normal"><g transform="scale(5.12,5.12)"><path d="M8,4c-1.7,0 -3,1.3 -3,3v36c0,1.7 1.3,3 3,3h36c1.7,0 3,-1.3 3,-3v-29.80078c0,-0.3 -0.10078,-0.49922 -0.30078,-0.69922l-8.19922,-8.19922c-0.2,-0.2 -0.39922,-0.30078 -0.69922,-0.30078zM13,6h24v12c0,1.1 -0.9,2 -2,2h-20c-1.1,0 -2,-0.9 -2,-2zM29,9v8h4v-8zM15,27h22c1.1,0 2,0.9 2,2v15h-26v-15c0,-1.1 0.9,-2 2,-2zM8,41h2v2h-2zM42,41h2v2h-2z"></path></g></g></g></svg>