<svg xmlns="http://www.w3.org/2000/svg" xmlns:xlink="http://www.w3.org/1999/xlink" viewBox="0,0,256,256" width="192px" height="192px" fill-rule="nonzero"><g fill="#fffff0" fill-rule="nonzero" stroke="none" stroke-width="1" stroke-linecap="butt" stroke-linejoin="miter" stroke-miterlimit="10" stroke-dasharray="" stroke-dashoffset="0" font-family="none" font-weight="none" font-size="none" text-anchor="none" style="mix-blend-mode: normal"><g transform="scale(10.66667,10.66667)"><path d="M7.00586,4.03516c-0.6988,0.04355 -1.37666,0.41933 -1.7207,1.10742l-0.01367,0.02539l-3.13086,7.29883c-0.05686,0.08975 -0.09906,0.18799 -0.125,0.29101l-0.01562,0.03711v0.03711c-0.01785,0.10799 -0.01785,0.21818 0,0.32617v0.58594c0,1.44491 0.39054,2.90842 1.25781,4.13281c0.73795,1.04202 1.99219,2.12305 3.74219,2.12305c1.83333,0 3.02527,-1.06422 3.51953,-2.05273c0.49426,-0.98851 0.48047,-1.94727 0.48047,-1.94727v-2c0,-0.56503 0.43497,-1 1,-1c0.56503,0 1,0.43497 1,1v2c0,0 -0.01379,0.95875 0.48047,1.94727c0.49426,0.98851 1.6862,2.05273 3.51953,2.05273c1.75,0 3.00424,-1.08103 3.74219,-2.12305c0.8671,-1.22414 1.25781,-2.68705 1.25781,-4.13281v-0.57617c0.01785,-0.10799 0.01785,-0.21818 0,-0.32617v-0.04687l-0.01953,-0.04492c-0.02545,-0.09794 -0.06562,-0.19146 -0.11914,-0.27734l-3.13281,-7.30469l-0.01367,-0.02539c-0.68809,-1.37618 -2.71165,-1.5028 -3.56445,-0.22266l-0.00586,0.00586l-0.98633,1.5332c-0.29879,0.46491 -0.16413,1.08402 0.30078,1.38281c0.46491,0.29879 1.08402,0.16413 1.38281,-0.30078l0.97266,-1.51172c0.0532,-0.07986 0.06742,-0.08 0.11133,0.00781l2.55664,5.96289h-5.26953c-0.55073,-0.60816 -1.33651,-1 -2.21289,-1c-0.87639,0 -1.66216,0.39184 -2.21289,1h-5.26953l2.55664,-5.96289c0.04391,-0.08782 0.05813,-0.08767 0.11133,-0.00781l0.97266,1.51172c0.29879,0.46491 0.9179,0.59958 1.38281,0.30078c0.46491,-0.29879 0.59958,-0.9179 0.30078,-1.38281l-0.98633,-1.5332l-0.00586,-0.00586c-0.4264,-0.64007 -1.14495,-0.92831 -1.84375,-0.88477z"></path></g></g></svg>