<?xml version="1.0" encoding="UTF-8" standalone="no"?>
<!-- Uploaded to: SVG Repo, www.svgrepo.com, Generator: SVG Repo Mixer Tools -->

<svg
   width="800px"
   height="800px"
   viewBox="0 -1.5 13 13"
   version="1.1"
   id="svg1"
   sodipodi:docname="pulse_cone_narrow.svg"
   inkscape:version="1.3.2 (091e20e, 2023-11-25, custom)"
   xmlns:inkscape="http://www.inkscape.org/namespaces/inkscape"
   xmlns:sodipodi="http://sodipodi.sourceforge.net/DTD/sodipodi-0.dtd"
   xmlns="http://www.w3.org/2000/svg"
   xmlns:svg="http://www.w3.org/2000/svg"
   xmlns:rdf="http://www.w3.org/1999/02/22-rdf-syntax-ns#"
   xmlns:cc="http://creativecommons.org/ns#"
   xmlns:dc="http://purl.org/dc/elements/1.1/">

  <title
     id="title1">pulse_cone_wide</title>
  <desc
     id="desc1">Wide angle transucer frequency</desc>
  <defs
     id="defs1">
    <!-- Your definitions if any -->
  </defs>
  <!-- New group wrapping everything to apply the rotation -->
  <g
     transform="rotate(180, 6.5, 5)"
     id="g1">
    <g
       id="Page-1"
       stroke="none"
       stroke-width="1"
       fill="none"
       fill-rule="evenodd">
      <g
         id="Dribbble-Light-Preview"
         transform="translate(-423.000000, -3604.000000)"
         fill="#FFFFFF">
        <g
           id="icons"
           transform="matrix(1.2817739,0,0,1.2389537,-49.327341,-664.78617)">
          <path
             d="m 372.37247,3452.9646 0.43238,0.7295 c 0.38433,0.4079 1.00652,0.4079 1.38986,0 l 0.4249,-0.7375 c -0.61852,-0.8148 -1.62114,-0.8148 -2.23966,0 m -0.63114,-1.4863 2.8e-4,0.011 c 1.04477,-0.975 2.32968,-1.0068 3.50236,0 l 0.8736,-1.5735 c -2.22265,-1.3404 -3.41382,-1.3079 -5.24955,0.1968 m 5.95633,-1.5978 7.1e-4,0.023 c -2.39739,-1.8587 -4.53804,-1.8905 -6.66552,0 l -0.36799,-0.6916 c -0.19348,-0.3636 -0.10463,-1.1747 0.16172,-1.5659 2.18548,-1.7536 4.54475,-1.7472 7.07905,0 0.3813,0.2629 0.40901,1.1236 0.16072,1.5659"
             id="pulse_cone_wide"
             sodipodi:nodetypes="cccccccccccccscsc" />
        </g>
      </g>
    </g>
  </g>
  <metadata
     id="metadata1">
    <rdf:RDF>
      <cc:Work
         rdf:about="">
        <dc:title>pulse_cone_wide</dc:title>
      </cc:Work>
    </rdf:RDF>
  </metadata>
</svg>
